G04*
G04 #@! TF.GenerationSoftware,Altium Limited,Altium Designer,21.0.8 (223)*
G04*
G04 Layer_Color=255*
%FSTAX25Y25*%
%MOIN*%
G70*
G04*
G04 #@! TF.SameCoordinates,ACC495E8-7B1D-45BE-8A89-05A210FF911E*
G04*
G04*
G04 #@! TF.FilePolarity,Positive*
G04*
G01*
G75*
%ADD100C,0.02756*%
%ADD101O,0.12000X0.11000*%
%ADD102R,0.12000X0.11000*%
%ADD103C,0.05512*%
%ADD104R,0.05512X0.05512*%
%ADD105C,0.07500*%
%ADD106O,0.09843X0.11811*%
G04:AMPARAMS|DCode=107|XSize=70.87mil|YSize=62.99mil|CornerRadius=15.75mil|HoleSize=0mil|Usage=FLASHONLY|Rotation=270.000|XOffset=0mil|YOffset=0mil|HoleType=Round|Shape=RoundedRectangle|*
%AMROUNDEDRECTD107*
21,1,0.07087,0.03150,0,0,270.0*
21,1,0.03937,0.06299,0,0,270.0*
1,1,0.03150,-0.01575,-0.01968*
1,1,0.03150,-0.01575,0.01968*
1,1,0.03150,0.01575,0.01968*
1,1,0.03150,0.01575,-0.01968*
%
%ADD107ROUNDEDRECTD107*%
%ADD108O,0.06299X0.07087*%
%ADD109O,0.07500X0.06200*%
G04:AMPARAMS|DCode=110|XSize=62mil|YSize=75mil|CornerRadius=15.5mil|HoleSize=0mil|Usage=FLASHONLY|Rotation=90.000|XOffset=0mil|YOffset=0mil|HoleType=Round|Shape=RoundedRectangle|*
%AMROUNDEDRECTD110*
21,1,0.06200,0.04400,0,0,90.0*
21,1,0.03100,0.07500,0,0,90.0*
1,1,0.03100,0.02200,0.01550*
1,1,0.03100,0.02200,-0.01550*
1,1,0.03100,-0.02200,-0.01550*
1,1,0.03100,-0.02200,0.01550*
%
%ADD110ROUNDEDRECTD110*%
%ADD111O,0.07087X0.06299*%
G04:AMPARAMS|DCode=112|XSize=70.87mil|YSize=62.99mil|CornerRadius=15.75mil|HoleSize=0mil|Usage=FLASHONLY|Rotation=180.000|XOffset=0mil|YOffset=0mil|HoleType=Round|Shape=RoundedRectangle|*
%AMROUNDEDRECTD112*
21,1,0.07087,0.03150,0,0,180.0*
21,1,0.03937,0.06299,0,0,180.0*
1,1,0.03150,-0.01968,0.01575*
1,1,0.03150,0.01968,0.01575*
1,1,0.03150,0.01968,-0.01575*
1,1,0.03150,-0.01968,-0.01575*
%
%ADD112ROUNDEDRECTD112*%
%ADD113O,0.06000X0.08000*%
%ADD114R,0.06000X0.08000*%
D100*
X0381606Y0268468D02*
D03*
X0372819Y0268957D02*
D03*
X0386Y0272862D02*
D03*
X0377213D02*
D03*
X0368425D02*
D03*
X0381606Y0277256D02*
D03*
X0372819D02*
D03*
X0386Y028165D02*
D03*
X0377213D02*
D03*
X0368425D02*
D03*
X0381606Y0286043D02*
D03*
X0372819D02*
D03*
D101*
X0125Y0160685D02*
D03*
D102*
Y0180685D02*
D03*
D103*
X04385Y0209063D02*
D03*
Y0216937D02*
D03*
Y0224811D02*
D03*
Y0232685D02*
D03*
Y0240559D02*
D03*
Y0248433D02*
D03*
X0438583Y0273228D02*
D03*
Y0281102D02*
D03*
D104*
X04385Y0256307D02*
D03*
X0438583Y0265354D02*
D03*
D105*
X0269876Y0245069D02*
D03*
X0288676Y0270469D02*
D03*
X0269476Y0270169D02*
D03*
X0288976Y0245669D02*
D03*
D106*
X01785Y0189685D02*
D03*
X02035Y0179685D02*
D03*
X01535D02*
D03*
X02035Y0131811D02*
D03*
X01535D02*
D03*
D107*
X0364843Y0143307D02*
D03*
D108*
X0354842D02*
D03*
D109*
X04385Y03085D02*
D03*
D110*
Y02985D02*
D03*
D111*
X04345Y0176D02*
D03*
X0115748Y0288976D02*
D03*
D112*
X04345Y0166D02*
D03*
X0115748Y0298976D02*
D03*
D113*
X0252665Y0193803D02*
D03*
X0262665D02*
D03*
X0272665D02*
D03*
X0282665D02*
D03*
X0292665D02*
D03*
X0302665D02*
D03*
X0252665Y0153803D02*
D03*
X0262665D02*
D03*
X0272665D02*
D03*
X0282665D02*
D03*
X0292665D02*
D03*
D114*
X0302665D02*
D03*
M02*
