G04*
G04 #@! TF.GenerationSoftware,Altium Limited,Altium Designer,21.0.8 (223)*
G04*
G04 Layer_Color=65535*
%FSTAX25Y25*%
%MOIN*%
G70*
G04*
G04 #@! TF.SameCoordinates,ACC495E8-7B1D-45BE-8A89-05A210FF911E*
G04*
G04*
G04 #@! TF.FilePolarity,Positive*
G04*
G01*
G75*
%ADD10C,0.00787*%
%ADD11C,0.00984*%
%ADD12C,0.00700*%
%ADD13C,0.00500*%
%ADD14C,0.01000*%
%ADD15C,0.00800*%
%ADD16R,0.10000X0.05000*%
%ADD17R,0.07500X0.02500*%
%ADD18R,0.02500X0.07500*%
G36*
X011Y0170685D02*
X01075Y0173185D01*
Y0171685D01*
X0105D01*
Y0169685D01*
X01075D01*
Y0168185D01*
X011Y0170685D01*
D02*
G37*
G36*
X0229512Y0208237D02*
X0231897D01*
Y0205886D01*
X0229512D01*
Y0208237D01*
D02*
G37*
D10*
X0338236Y0306713D02*
G03*
X0338236Y0306713I-0000394J0D01*
G01*
X0232112Y0207067D02*
G03*
X0232112Y0207067I-0001419J0D01*
G01*
X0168626Y022824D02*
X0169905D01*
X0168626Y021013D02*
X0169905D01*
X0158095Y022824D02*
X0159374D01*
X0158095Y021013D02*
X0159374D01*
X0169905D02*
Y022824D01*
X0158095Y021013D02*
Y022824D01*
X0175594Y0211929D02*
X0178744D01*
X0175594D02*
Y0213898D01*
X0184256Y0211929D02*
X0187406D01*
Y0213898D01*
X0218811Y0260083D02*
X0245189D01*
X0218811Y0247287D02*
X0245189D01*
X0218811D02*
Y0260083D01*
X0245189Y0247287D02*
Y0260083D01*
X02371Y0228185D02*
Y0235185D01*
X02509Y0228185D02*
Y0235185D01*
X02371D02*
X0242393D01*
X0245444D02*
X02509D01*
X0245444Y0228185D02*
X02509D01*
X02371D02*
X0242393D01*
X02389Y0272685D02*
Y0279685D01*
X02251Y0272685D02*
Y0279685D01*
X0233607Y0272685D02*
X02389D01*
X02251D02*
X0230556D01*
X02251Y0279685D02*
X0230556D01*
X0233607D02*
X02389D01*
X0212779Y020313D02*
X0235221D01*
X0212779D02*
Y022124D01*
X0235221D01*
Y020313D02*
Y022124D01*
X0268382Y0204559D02*
X0270154D01*
X0276847D02*
X0278618D01*
X0268382D02*
Y0210366D01*
X0278618Y0204559D02*
Y0210366D01*
X0282882Y0204559D02*
X0284654D01*
X0291347D02*
X0293118D01*
X0282882D02*
Y0210366D01*
X0293118Y0204559D02*
Y0210366D01*
X0296382Y0204559D02*
X0298154D01*
X0304847D02*
X0306618D01*
X0296382D02*
Y0210366D01*
X0306618Y0204559D02*
Y0210366D01*
X0310382Y0204185D02*
X0312154D01*
X0318847D02*
X0320618D01*
X0310382D02*
Y0209992D01*
X0320618Y0204185D02*
Y0209992D01*
X0409685Y0165252D02*
Y0168402D01*
X0411654D01*
X0409685Y0156591D02*
Y015974D01*
Y0156591D02*
X0411654D01*
X03295Y02986D02*
Y0303893D01*
Y0306944D02*
Y03124D01*
X03225Y0306944D02*
Y03124D01*
Y02986D02*
Y0303893D01*
Y03124D02*
X03295D01*
X03225Y02986D02*
X03295D01*
X0322D02*
Y0303893D01*
Y0306944D02*
Y03124D01*
X0315Y0306944D02*
Y03124D01*
Y02986D02*
Y0303893D01*
Y03124D02*
X0322D01*
X0315Y02986D02*
X0322D01*
D11*
X0159276Y0230071D02*
G03*
X0159276Y0230071I-0000492J0D01*
G01*
X0222Y0248685D02*
G03*
X0222Y0248685I-0000492J0D01*
G01*
X0277992Y0210185D02*
G03*
X0277992Y0210185I-0000492J0D01*
G01*
X0292492D02*
G03*
X0292492Y0210185I-0000492J0D01*
G01*
X0305992D02*
G03*
X0305992Y0210185I-0000492J0D01*
G01*
X0319992Y0209811D02*
G03*
X0319992Y0209811I-0000492J0D01*
G01*
X0429492Y0142693D02*
G03*
X0429492Y0142693I-0000492J0D01*
G01*
X0383992Y0141677D02*
G03*
X0383992Y0141677I-0000492J0D01*
G01*
D12*
X0143Y0257685D02*
G03*
X01395Y0254185I0J-00035D01*
G01*
Y0255185D02*
G03*
X0137Y0257685I-00025J0D01*
G01*
D02*
G03*
X01345Y0255185I0J-00025D01*
G01*
Y0255685D02*
G03*
X01325Y0257685I-0002J0D01*
G01*
D02*
G03*
X01305Y0255685I0J-0002D01*
G01*
D02*
G03*
X01285Y0257685I-0002J0D01*
G01*
D02*
G03*
X01265Y0255685I0J-0002D01*
G01*
D02*
G03*
X01245Y0257685I-0002J0D01*
G01*
D02*
G03*
X01225Y0255685I0J-0002D01*
G01*
D02*
G03*
X01205Y0257685I-0002J0D01*
G01*
D02*
G03*
X01185Y0255685I0J-0002D01*
G01*
Y0254185D02*
G03*
X0115Y0257685I-00035J0D01*
G01*
X0145Y0233685D02*
Y0276685D01*
X0114D02*
X0145D01*
X0114Y0233685D02*
Y0276685D01*
Y0233685D02*
X0145D01*
X0143Y0257685D02*
X0145D01*
X01395Y0254185D02*
Y0255185D01*
X01345Y0254185D02*
Y0255185D01*
Y0254185D02*
Y0255685D01*
X01305Y0254185D02*
Y0255685D01*
Y0254185D02*
Y0255685D01*
X01265Y0254185D02*
Y0255685D01*
Y0254185D02*
Y0255685D01*
X01225Y0254185D02*
Y0255685D01*
Y0254185D02*
Y0255685D01*
X01185Y0254185D02*
Y0255685D01*
X0114Y0257685D02*
X0115D01*
X0243084Y0234398D02*
X0244883D01*
X0243084Y0228998D02*
X0244883D01*
X0231117Y0273472D02*
X0232916D01*
X0231117Y0278872D02*
X0232916D01*
X0328687Y0304584D02*
Y0306383D01*
X0323287Y0304584D02*
Y0306383D01*
X0321187Y0304584D02*
Y0306383D01*
X0315787Y0304584D02*
Y0306383D01*
D13*
X0412646Y031065D02*
Y033624D01*
X0341779D02*
X0412646D01*
X0341779Y031065D02*
Y033624D01*
X0412646Y0235846D02*
Y0238405D01*
X0403Y0235846D02*
X0412646D01*
X0341779D02*
X0351425D01*
X0341779D02*
Y0238405D01*
X03062Y0315485D02*
Y0321385D01*
X03138Y0315485D02*
Y0321385D01*
X03062Y0315485D02*
X03138D01*
Y0324085D02*
Y0329885D01*
X03062D02*
X03138D01*
X03062Y0323885D02*
Y0329885D01*
X03Y0312185D02*
X0313D01*
Y0305185D02*
Y0312185D01*
X03Y0305185D02*
X0313D01*
X0299Y0306685D02*
Y0310685D01*
X02858Y03062D02*
X02917D01*
X02858Y03138D02*
X02917D01*
Y03062D02*
Y03138D01*
X02773D02*
X02831D01*
X02773Y03062D02*
Y03138D01*
Y03062D02*
X02833D01*
X0277163Y03064D02*
X0283463D01*
X0285563D02*
X0291763D01*
X0291837Y02996D02*
Y03064D01*
X0285663Y02996D02*
X0291763D01*
X0277163D02*
X0283363D01*
X0277163D02*
Y03064D01*
X02008Y0225985D02*
Y0231885D01*
X01932Y0225985D02*
Y0231885D01*
X02008D01*
X01932Y0217485D02*
Y0223285D01*
Y0217485D02*
X02008D01*
Y0223485D01*
X026661Y0224327D02*
X028039D01*
X026661Y0217043D02*
X028039D01*
X026661D02*
Y0224327D01*
X028039Y0217043D02*
Y0224327D01*
X028061D02*
X029439D01*
X028061Y0217043D02*
X029439D01*
X028061D02*
Y0224327D01*
X029439Y0217043D02*
Y0224327D01*
X029461D02*
X030839D01*
X029461Y0217043D02*
X030839D01*
X029461D02*
Y0224327D01*
X030839Y0217043D02*
Y0224327D01*
X030861D02*
X032239D01*
X030861Y0217043D02*
X032239D01*
X030861D02*
Y0224327D01*
X032239Y0217043D02*
Y0224327D01*
X0330142Y0202295D02*
Y0216075D01*
X0322858Y0202295D02*
Y0216075D01*
X0330142D01*
X0322858Y0202295D02*
X0330142D01*
X0337642D02*
Y0216075D01*
X0330358Y0202295D02*
Y0216075D01*
X0337642D01*
X0330358Y0202295D02*
X0337642D01*
X033861Y0183043D02*
X035239D01*
X033861Y0190327D02*
X035239D01*
Y0183043D02*
Y0190327D01*
X033861Y0183043D02*
Y0190327D01*
Y0175543D02*
X035239D01*
X033861Y0182827D02*
X035239D01*
Y0175543D02*
Y0182827D01*
X033861Y0175543D02*
Y0182827D01*
Y0168043D02*
X035239D01*
X033861Y0175327D02*
X035239D01*
Y0168043D02*
Y0175327D01*
X033861Y0168043D02*
Y0175327D01*
X0338449Y0160543D02*
X0352228D01*
X0338449Y0167827D02*
X0352228D01*
Y0160543D02*
Y0167827D01*
X0338449Y0160543D02*
Y0167827D01*
X03318Y0137385D02*
X03377D01*
X03318Y0144985D02*
X03377D01*
Y0137385D02*
Y0144985D01*
X03233D02*
X03291D01*
X03233Y0137385D02*
Y0144985D01*
Y0137385D02*
X03293D01*
X0418858Y030361D02*
Y031739D01*
X0426142Y030361D02*
Y031739D01*
X0418858Y030361D02*
X0426142D01*
X0418858Y031739D02*
X0426142D01*
X0397163Y0211585D02*
X0403463D01*
X0405563D02*
X0411763D01*
X0411837Y0204785D02*
Y0211585D01*
X0405663Y0204785D02*
X0411763D01*
X0397163D02*
X0403363D01*
X0397163D02*
Y0211585D01*
X04058Y0196885D02*
X04117D01*
X04058Y0204485D02*
X04117D01*
Y0196885D02*
Y0204485D01*
X03973D02*
X04031D01*
X03973Y0196885D02*
Y0204485D01*
Y0196885D02*
X04033D01*
X0403241Y0163796D02*
Y0169696D01*
X0395641Y0163796D02*
Y0169696D01*
X0403241D01*
X0395641Y0155296D02*
Y0161096D01*
Y0155296D02*
X0403241D01*
Y0161296D01*
X03852Y0155485D02*
X03912D01*
Y0147885D02*
Y0155485D01*
X03854Y0147885D02*
X03912D01*
X03768D02*
Y0155485D01*
Y0147885D02*
X03827D01*
X03768Y0155485D02*
X03827D01*
X04207Y0195885D02*
Y0201885D01*
X04283D01*
Y0196085D02*
Y0201885D01*
X04207Y0187485D02*
X04283D01*
Y0193385D01*
X04207Y0187485D02*
Y0193385D01*
X0314858Y0266957D02*
X0322142D01*
X0314858Y0280736D02*
X0322142D01*
X0314858Y0266957D02*
Y0280736D01*
X0322142Y0266957D02*
Y0280736D01*
D14*
X01025Y0150685D02*
Y0190685D01*
X01425D01*
Y0150685D02*
Y0190685D01*
X01025Y0183685D02*
X0108D01*
Y0178185D02*
Y0183685D01*
X01025Y0178185D02*
X0108D01*
X01025Y0163685D02*
X0108D01*
Y0158185D02*
Y0163685D01*
X01025Y0158185D02*
X0108D01*
X01335Y0190185D02*
X01365D01*
X01025Y0150685D02*
X01425D01*
X01085Y0190185D02*
X01115D01*
X01335Y0150185D02*
X01365D01*
X01085D02*
X01115D01*
X0258405Y0254085D02*
Y0280285D01*
X0246595Y0254085D02*
X0258405D01*
X0246595D02*
Y0280285D01*
X0258405D01*
X0246595Y0281185D02*
X0258405D01*
X0246595Y0282085D02*
X0258405D01*
X02584Y0279985D02*
Y0282085D01*
X02466Y0279785D02*
Y0282085D01*
X0163724Y0232909D02*
Y0273461D01*
X0196724Y0232909D02*
X0204276Y0240461D01*
X0163724Y0232909D02*
X0196724D01*
X0204276Y0240461D02*
Y026591D01*
X0196724Y0273461D02*
X0204276Y026591D01*
X0163724Y0273461D02*
X0196724D01*
X01496Y0249785D02*
X01564D01*
X01496Y0271885D02*
X01507Y0272985D01*
X01496Y0249785D02*
Y0271885D01*
X01507Y0272985D02*
X01553D01*
X01564Y0271885D01*
Y0249785D02*
Y0271885D01*
X0292202Y0281676D02*
Y0286176D01*
Y0291776D02*
Y0296276D01*
X0270002D02*
X0292202D01*
X0270002Y0281676D02*
X0292202D01*
X0276102Y0286476D02*
X0286102D01*
X0276102D02*
Y0291476D01*
X0286102D01*
Y0286476D02*
Y0291476D01*
X0270002Y0281676D02*
Y0286176D01*
Y0291776D02*
Y0296276D01*
X0132224Y0281909D02*
Y031491D01*
X0139776Y0322461D01*
X0165224D01*
X0172776Y0281909D02*
Y031491D01*
X0165224Y0322461D02*
X0172776Y031491D01*
X0132224Y0281909D02*
X0172776D01*
X0227Y0283685D02*
Y0324685D01*
X0196Y0283685D02*
X0227D01*
X0196D02*
Y0324685D01*
X0227D01*
X0148945Y0195685D02*
X0208D01*
X0148945Y0122063D02*
Y0195685D01*
Y0122063D02*
X0208D01*
Y0195685D01*
X039262Y0222485D02*
Y0226985D01*
Y0212385D02*
Y0216885D01*
X040872Y0217185D02*
Y0222185D01*
X0398721D02*
X040872D01*
X0398721Y0217185D02*
Y0222185D01*
Y0217185D02*
X040872D01*
X039262Y0212385D02*
X041482D01*
X039262Y0226985D02*
X041482D01*
Y0222485D02*
Y0226985D01*
Y0212385D02*
Y0216885D01*
X0433Y0145685D02*
Y0147685D01*
Y0153185D02*
Y0153685D01*
X0424D02*
X0433D01*
X0424Y0149685D02*
Y0153685D01*
X0433Y0139685D02*
Y0140185D01*
X0424Y0139685D02*
X0433D01*
X0424D02*
Y0143685D01*
X03885Y0140685D02*
Y0144685D01*
X03795D02*
X03885D01*
X03795Y0144185D02*
Y0144685D01*
X03885Y0130685D02*
Y0134685D01*
X03795Y0130685D02*
X03885D01*
X03795D02*
Y0131185D01*
Y0136685D02*
Y0138685D01*
X0103Y01966D02*
Y0202598D01*
X0105999D01*
X0106999Y0201598D01*
Y0199599D01*
X0105999Y0198599D01*
X0103D01*
X0108998Y0201598D02*
X0109998Y0202598D01*
X0111997D01*
X0112997Y0201598D01*
Y0200599D01*
X0111997Y0199599D01*
X0110997D01*
X0111997D01*
X0112997Y0198599D01*
Y01976D01*
X0111997Y01966D01*
X0109998D01*
X0108998Y01976D01*
X0251099Y0290598D02*
X0250099Y0291598D01*
X02481D01*
X02471Y0290598D01*
Y02866D01*
X02481Y02856D01*
X0250099D01*
X0251099Y02866D01*
X0257097Y0291598D02*
X0255097Y0290598D01*
X0253098Y0288599D01*
Y02866D01*
X0254098Y02856D01*
X0256097D01*
X0257097Y02866D01*
Y0287599D01*
X0256097Y0288599D01*
X0253098D01*
X0179876Y0328759D02*
Y0326135D01*
X0180401Y0325611D01*
X018145D01*
X0181975Y0326135D01*
Y0328759D01*
X0183025Y0328235D02*
X0183549Y0328759D01*
X0184599D01*
X0185124Y0328235D01*
Y032771D01*
X0184599Y0327185D01*
X0184074D01*
X0184599D01*
X0185124Y032666D01*
Y0326135D01*
X0184599Y0325611D01*
X0183549D01*
X0183025Y0326135D01*
X0213376Y0226259D02*
Y0223636D01*
X0213901Y0223111D01*
X021495D01*
X0215475Y0223636D01*
Y0226259D01*
X0218624Y0223111D02*
X0216525D01*
X0218624Y022521D01*
Y0225735D01*
X0218099Y0226259D01*
X021705D01*
X0216525Y0225735D01*
X0386975D02*
X0386451Y0226259D01*
X0385401D01*
X0384876Y0225735D01*
Y022521D01*
X0385401Y0224685D01*
X0386451D01*
X0386975Y022416D01*
Y0223636D01*
X0386451Y0223111D01*
X0385401D01*
X0384876Y0223636D01*
X0388025Y0225735D02*
X0388549Y0226259D01*
X0389599D01*
X0390124Y0225735D01*
Y022521D01*
X0389599Y0224685D01*
X0389074D01*
X0389599D01*
X0390124Y022416D01*
Y0223636D01*
X0389599Y0223111D01*
X0388549D01*
X0388025Y0223636D01*
X02725Y0278735D02*
X0271975Y0279259D01*
X0270926D01*
X0270401Y0278735D01*
Y027821D01*
X0270926Y0277685D01*
X0271975D01*
X02725Y027716D01*
Y0276636D01*
X0271975Y0276111D01*
X0270926D01*
X0270401Y0276636D01*
X027355Y0276111D02*
X0274599D01*
X0274074D01*
Y0279259D01*
X027355Y0278735D01*
X0211327Y0135611D02*
Y0138759D01*
X0212901D01*
X0213426Y0138235D01*
Y0137185D01*
X0212901Y013666D01*
X0211327D01*
X0212376D02*
X0213426Y0135611D01*
X0214475Y0138759D02*
Y0135611D01*
X0216574D01*
X0217624D02*
X0218673D01*
X0218149D01*
Y0138759D01*
X0217624Y0138235D01*
X0393064Y0149111D02*
Y0152259D01*
X0394639D01*
X0395163Y0151735D01*
Y0150685D01*
X0394639Y015016D01*
X0393064D01*
X0394114D02*
X0395163Y0149111D01*
X0396213D02*
X0397262D01*
X0396738D01*
Y0152259D01*
X0396213Y0151735D01*
X0400936Y0149111D02*
X0398837D01*
X0400936Y015121D01*
Y0151735D01*
X0400411Y0152259D01*
X0399361D01*
X0398837Y0151735D01*
X04215Y02051D02*
Y0208249D01*
X0423074D01*
X0423599Y0207724D01*
Y0206674D01*
X0423074Y020615D01*
X04215D01*
X0422549D02*
X0423599Y02051D01*
X0424649Y0205625D02*
X0425173Y02051D01*
X0426223D01*
X0426748Y0205625D01*
Y0207724D01*
X0426223Y0208249D01*
X0425173D01*
X0424649Y0207724D01*
Y0207199D01*
X0425173Y0206674D01*
X0426748D01*
X0324376Y0132611D02*
Y0135759D01*
X0325951D01*
X0326475Y0135235D01*
Y0134185D01*
X0325951Y013366D01*
X0324376D01*
X0325426D02*
X0326475Y0132611D01*
X0327525Y0135235D02*
X0328049Y0135759D01*
X0329099D01*
X0329624Y0135235D01*
Y013471D01*
X0329099Y0134185D01*
X0329624Y013366D01*
Y0133135D01*
X0329099Y0132611D01*
X0328049D01*
X0327525Y0133135D01*
Y013366D01*
X0328049Y0134185D01*
X0327525Y013471D01*
Y0135235D01*
X0328049Y0134185D02*
X0329099D01*
X0202926Y0230809D02*
X0206074D01*
Y0229235D01*
X020555Y022871D01*
X02045D01*
X0203975Y0229235D01*
Y0230809D01*
Y0229759D02*
X0202926Y022871D01*
X0206074Y022766D02*
Y0225561D01*
X020555D01*
X020345Y022766D01*
X0202926D01*
X0388376Y0165111D02*
Y0168259D01*
X038995D01*
X0390475Y0167735D01*
Y0166685D01*
X038995Y016616D01*
X0388376D01*
X0389426D02*
X0390475Y0165111D01*
X0393624Y0168259D02*
X0392574Y0167735D01*
X0391525Y0166685D01*
Y0165636D01*
X039205Y0165111D01*
X0393099D01*
X0393624Y0165636D01*
Y016616D01*
X0393099Y0166685D01*
X0391525D01*
X0269876Y0308611D02*
Y0311759D01*
X027145D01*
X0271975Y0311235D01*
Y0310185D01*
X027145Y030966D01*
X0269876D01*
X0270926D02*
X0271975Y0308611D01*
X0275124Y0311759D02*
X0273025D01*
Y0310185D01*
X0274074Y031071D01*
X0274599D01*
X0275124Y0310185D01*
Y0309136D01*
X0274599Y0308611D01*
X027355D01*
X0273025Y0309136D01*
X0398376Y0191611D02*
Y0194759D01*
X0399951D01*
X0400475Y0194235D01*
Y0193185D01*
X0399951Y019266D01*
X0398376D01*
X0399426D02*
X0400475Y0191611D01*
X0403624D02*
X0401525D01*
X0403624Y019371D01*
Y0194235D01*
X0403099Y0194759D01*
X0402049D01*
X0401525Y0194235D01*
X0299401Y0325111D02*
Y0328259D01*
X0300975D01*
X03015Y0327735D01*
Y0326685D01*
X0300975Y032616D01*
X0299401D01*
X030045D02*
X03015Y0325111D01*
X030255D02*
X0303599D01*
X0303074D01*
Y0328259D01*
X030255Y0327735D01*
X0306975Y0200135D02*
Y0202235D01*
X0306451Y0202759D01*
X0305401D01*
X0304876Y0202235D01*
Y0200135D01*
X0305401Y0199611D01*
X0306451D01*
X0305926Y020066D02*
X0306975Y0199611D01*
X0306451D02*
X0306975Y0200135D01*
X0308025Y0202235D02*
X0308549Y0202759D01*
X0309599D01*
X0310124Y0202235D01*
Y020171D01*
X0309599Y0201185D01*
X0310124Y020066D01*
Y0200135D01*
X0309599Y0199611D01*
X0308549D01*
X0308025Y0200135D01*
Y020066D01*
X0308549Y0201185D01*
X0308025Y020171D01*
Y0202235D01*
X0308549Y0201185D02*
X0309599D01*
X0392975Y0142136D02*
Y0144235D01*
X039245Y0144759D01*
X0391401D01*
X0390876Y0144235D01*
Y0142136D01*
X0391401Y0141611D01*
X039245D01*
X0391926Y014266D02*
X0392975Y0141611D01*
X039245D02*
X0392975Y0142136D01*
X0394025Y0144759D02*
X0396124D01*
Y0144235D01*
X0394025Y0142136D01*
Y0141611D01*
X0278975Y0199636D02*
Y0201735D01*
X027845Y0202259D01*
X0277401D01*
X0276876Y0201735D01*
Y0199636D01*
X0277401Y0199111D01*
X027845D01*
X0277926Y020016D02*
X0278975Y0199111D01*
X027845D02*
X0278975Y0199636D01*
X0282124Y0202259D02*
X0281074Y0201735D01*
X0280025Y0200685D01*
Y0199636D01*
X028055Y0199111D01*
X0281599D01*
X0282124Y0199636D01*
Y020016D01*
X0281599Y0200685D01*
X0280025D01*
X0293975Y0200135D02*
Y0202235D01*
X029345Y0202759D01*
X0292401D01*
X0291876Y0202235D01*
Y0200135D01*
X0292401Y0199611D01*
X029345D01*
X0292926Y020066D02*
X0293975Y0199611D01*
X029345D02*
X0293975Y0200135D01*
X0297124Y0202759D02*
X0295025D01*
Y0201185D01*
X0296074Y020171D01*
X0296599D01*
X0297124Y0201185D01*
Y0200135D01*
X0296599Y0199611D01*
X029555D01*
X0295025Y0200135D01*
X0316475Y0197135D02*
Y0199235D01*
X031595Y0199759D01*
X0314901D01*
X0314376Y0199235D01*
Y0197135D01*
X0314901Y0196611D01*
X031595D01*
X0315426Y019766D02*
X0316475Y0196611D01*
X031595D02*
X0316475Y0197135D01*
X0319099Y0196611D02*
Y0199759D01*
X0317525Y0198185D01*
X0319624D01*
X0418475Y0141136D02*
Y0143235D01*
X041795Y0143759D01*
X0416901D01*
X0416376Y0143235D01*
Y0141136D01*
X0416901Y0140611D01*
X041795D01*
X0417426Y014166D02*
X0418475Y0140611D01*
X041795D02*
X0418475Y0141136D01*
X0419525Y0143235D02*
X0420049Y0143759D01*
X0421099D01*
X0421624Y0143235D01*
Y014271D01*
X0421099Y0142185D01*
X0420574D01*
X0421099D01*
X0421624Y014166D01*
Y0141136D01*
X0421099Y0140611D01*
X0420049D01*
X0419525Y0141136D01*
X0192475Y0209136D02*
Y0211235D01*
X0191951Y0211759D01*
X0190901D01*
X0190376Y0211235D01*
Y0209136D01*
X0190901Y0208611D01*
X0191951D01*
X0191426Y020966D02*
X0192475Y0208611D01*
X0191951D02*
X0192475Y0209136D01*
X0195624Y0208611D02*
X0193525D01*
X0195624Y021071D01*
Y0211235D01*
X0195099Y0211759D01*
X019405D01*
X0193525Y0211235D01*
X0408Y0172635D02*
Y0174735D01*
X0407475Y0175259D01*
X0406426D01*
X0405901Y0174735D01*
Y0172635D01*
X0406426Y0172111D01*
X0407475D01*
X0406951Y017316D02*
X0408Y0172111D01*
X0407475D02*
X0408Y0172635D01*
X040905Y0172111D02*
X0410099D01*
X0409574D01*
Y0175259D01*
X040905Y0174735D01*
X0444876Y0156611D02*
Y0159759D01*
X0446451D01*
X0446975Y0159235D01*
Y0158185D01*
X0446451Y015766D01*
X0444876D01*
X0450124Y0159759D02*
X0449074Y0159235D01*
X0448025Y0158185D01*
Y0157135D01*
X044855Y0156611D01*
X0449599D01*
X0450124Y0157135D01*
Y015766D01*
X0449599Y0158185D01*
X0448025D01*
X0345376Y0154611D02*
Y0157759D01*
X0346951D01*
X0347475Y0157235D01*
Y0156185D01*
X0346951Y015566D01*
X0345376D01*
X0350624Y0157759D02*
X0348525D01*
Y0156185D01*
X0349574Y015671D01*
X0350099D01*
X0350624Y0156185D01*
Y0155136D01*
X0350099Y0154611D01*
X0349049D01*
X0348525Y0155136D01*
X0417317Y0267493D02*
Y0270641D01*
X0418891D01*
X0419416Y0270116D01*
Y0269067D01*
X0418891Y0268542D01*
X0417317D01*
X042204Y0267493D02*
Y0270641D01*
X0420466Y0269067D01*
X0422565D01*
X01069Y03124D02*
Y0315549D01*
X0108474D01*
X0108999Y0315024D01*
Y0313974D01*
X0108474Y031345D01*
X01069D01*
X0112148Y03124D02*
X0110049D01*
X0112148Y0314499D01*
Y0315024D01*
X0111623Y0315549D01*
X0110573D01*
X0110049Y0315024D01*
X0427901Y0281111D02*
Y0284259D01*
X0429475D01*
X043Y0283735D01*
Y0282685D01*
X0429475Y028216D01*
X0427901D01*
X0431049Y0281111D02*
X0432099D01*
X0431574D01*
Y0284259D01*
X0431049Y0283735D01*
X0108901Y0282259D02*
Y0279111D01*
X0111D01*
X0112049D02*
X0113099D01*
X0112574D01*
Y0282259D01*
X0112049Y0281735D01*
X0175574Y0215809D02*
X0172426D01*
Y0214235D01*
X017295Y021371D01*
X0175049D01*
X0175574Y0214235D01*
Y0215809D01*
X0172426Y0211086D02*
X0175574D01*
X0174Y021266D01*
Y0210561D01*
X0151426Y0242061D02*
X0154574D01*
Y0243636D01*
X015405Y024416D01*
X0151951D01*
X0151426Y0243636D01*
Y0242061D01*
X0151951Y024521D02*
X0151426Y0245735D01*
Y0246784D01*
X0151951Y0247309D01*
X0152475D01*
X0153Y0246784D01*
Y0246259D01*
Y0246784D01*
X0153525Y0247309D01*
X015405D01*
X0154574Y0246784D01*
Y0245735D01*
X015405Y024521D01*
X0299901Y0317259D02*
Y0314111D01*
X0301475D01*
X0302Y0314635D01*
Y0316735D01*
X0301475Y0317259D01*
X0299901D01*
X0303049Y0314111D02*
X0304099D01*
X0303574D01*
Y0317259D01*
X0303049Y0316735D01*
X0271975Y0303235D02*
X027145Y0303759D01*
X0270401D01*
X0269876Y0303235D01*
Y0301135D01*
X0270401Y0300611D01*
X027145D01*
X0271975Y0301135D01*
X0273025D02*
X027355Y0300611D01*
X0274599D01*
X0275124Y0301135D01*
Y0303235D01*
X0274599Y0303759D01*
X027355D01*
X0273025Y0303235D01*
Y030271D01*
X027355Y0302185D01*
X0275124D01*
X0222235Y027671D02*
X0222759Y0277235D01*
Y0278284D01*
X0222235Y0278809D01*
X0220135D01*
X0219611Y0278284D01*
Y0277235D01*
X0220135Y027671D01*
X0222235Y027566D02*
X0222759Y0275135D01*
Y0274086D01*
X0222235Y0273561D01*
X022171D01*
X0221185Y0274086D01*
X022066Y0273561D01*
X0220135D01*
X0219611Y0274086D01*
Y0275135D01*
X0220135Y027566D01*
X022066D01*
X0221185Y0275135D01*
X022171Y027566D01*
X0222235D01*
X0221185Y0275135D02*
Y0274086D01*
X0256235Y023221D02*
X0256759Y0232735D01*
Y0233784D01*
X0256235Y0234309D01*
X0254135D01*
X0253611Y0233784D01*
Y0232735D01*
X0254135Y023221D01*
X0256759Y023116D02*
Y0229061D01*
X0256235D01*
X0254135Y023116D01*
X0253611D01*
X0211475Y0270735D02*
X021095Y0271259D01*
X0209901D01*
X0209376Y0270735D01*
Y0268636D01*
X0209901Y0268111D01*
X021095D01*
X0211475Y0268636D01*
X0214624Y0271259D02*
X0212525D01*
Y0269685D01*
X0213574Y027021D01*
X0214099D01*
X0214624Y0269685D01*
Y0268636D01*
X0214099Y0268111D01*
X021305D01*
X0212525Y0268636D01*
X0325199Y0318424D02*
X0324674Y0318949D01*
X0323625D01*
X03231Y0318424D01*
Y0316325D01*
X0323625Y03158D01*
X0324674D01*
X0325199Y0316325D01*
X0327823Y03158D02*
Y0318949D01*
X0326249Y0317374D01*
X0328348D01*
X0317699Y0318424D02*
X0317174Y0318949D01*
X0316125D01*
X03156Y0318424D01*
Y0316325D01*
X0316125Y03158D01*
X0317174D01*
X0317699Y0316325D01*
X0318749Y0318424D02*
X0319273Y0318949D01*
X0320323D01*
X0320848Y0318424D01*
Y0317899D01*
X0320323Y0317374D01*
X0319798D01*
X0320323D01*
X0320848Y0316849D01*
Y0316325D01*
X0320323Y03158D01*
X0319273D01*
X0318749Y0316325D01*
X0134475Y0330235D02*
X013395Y0330759D01*
X0132901D01*
X0132376Y0330235D01*
Y0328135D01*
X0132901Y0327611D01*
X013395D01*
X0134475Y0328135D01*
X0137624Y0327611D02*
X0135525D01*
X0137624Y032971D01*
Y0330235D01*
X0137099Y0330759D01*
X0136049D01*
X0135525Y0330235D01*
X04155Y0208735D02*
X0414975Y0209259D01*
X0413926D01*
X0413401Y0208735D01*
Y0206635D01*
X0413926Y0206111D01*
X0414975D01*
X04155Y0206635D01*
X0416549Y0206111D02*
X0417599D01*
X0417074D01*
Y0209259D01*
X0416549Y0208735D01*
X0242611Y0272933D02*
X024471D01*
X0245759Y0271883D01*
X024471Y0270834D01*
X0242611D01*
X0244185D01*
Y0272933D01*
X0242611Y0269784D02*
X0245759D01*
X024471Y0268735D01*
X0245759Y0267685D01*
X0242611D01*
X0245235Y0264536D02*
X0245759Y0265061D01*
Y0266111D01*
X0245235Y0266635D01*
X024471D01*
X0244185Y0266111D01*
Y0265061D01*
X024366Y0264536D01*
X0243135D01*
X0242611Y0265061D01*
Y0266111D01*
X0243135Y0266635D01*
X0242611Y0263487D02*
Y0262437D01*
Y0262962D01*
X0245759D01*
X0245235Y0263487D01*
X0298639Y0226611D02*
X0299688D01*
X0299163D01*
Y0229759D01*
X0298639Y0229235D01*
X0303362Y0226611D02*
X0301262D01*
X0303362Y022871D01*
Y0229235D01*
X0302837Y0229759D01*
X0301787D01*
X0301262Y0229235D01*
X0271663Y0226611D02*
X0272713D01*
X0272188D01*
Y0229759D01*
X0271663Y0229235D01*
X0274287Y0226611D02*
X0275337D01*
X0274812D01*
Y0229759D01*
X0274287Y0229235D01*
X0285139Y0226611D02*
X0286188D01*
X0285663D01*
Y0229759D01*
X0285139Y0229235D01*
X0287762D02*
X0288287Y0229759D01*
X0289337D01*
X0289861Y0229235D01*
Y0227135D01*
X0289337Y0226611D01*
X0288287D01*
X0287762Y0227135D01*
Y0229235D01*
X031495Y0226636D02*
X0315475Y0226111D01*
X0316525D01*
X031705Y0226636D01*
Y0228735D01*
X0316525Y0229259D01*
X0315475D01*
X031495Y0228735D01*
Y022821D01*
X0315475Y0227685D01*
X031705D01*
X032545Y0220735D02*
X0325975Y0221259D01*
X0327025D01*
X032755Y0220735D01*
Y022021D01*
X0327025Y0219685D01*
X032755Y021916D01*
Y0218636D01*
X0327025Y0218111D01*
X0325975D01*
X032545Y0218636D01*
Y021916D01*
X0325975Y0219685D01*
X032545Y022021D01*
Y0220735D01*
X0325975Y0219685D02*
X0327025D01*
X03095Y0279949D02*
X0311599D01*
Y0279424D01*
X03095Y0277325D01*
Y02768D01*
X035805Y0181259D02*
X0357Y0180735D01*
X035595Y0179685D01*
Y0178636D01*
X0356475Y0178111D01*
X0357525D01*
X035805Y0178636D01*
Y017916D01*
X0357525Y0179685D01*
X035595D01*
X035805Y0174259D02*
X035595D01*
Y0172685D01*
X0357Y017321D01*
X0357525D01*
X035805Y0172685D01*
Y0171635D01*
X0357525Y0171111D01*
X0356475D01*
X035595Y0171635D01*
X0357525Y0163111D02*
Y0166259D01*
X035595Y0164685D01*
X035805D01*
X0333451Y0220735D02*
X0333975Y0221259D01*
X0335025D01*
X0335549Y0220735D01*
Y022021D01*
X0335025Y0219685D01*
X03345D01*
X0335025D01*
X0335549Y021916D01*
Y0218636D01*
X0335025Y0218111D01*
X0333975D01*
X0333451Y0218636D01*
X0358549Y0185611D02*
X0356451D01*
X0358549Y018771D01*
Y0188235D01*
X0358025Y0188759D01*
X0356975D01*
X0356451Y0188235D01*
X0421975Y0319111D02*
X0423025D01*
X04225D01*
Y0322259D01*
X0421975Y0321735D01*
X0364451Y0230235D02*
X0366549Y0228135D01*
X0364451D02*
X0366549Y0230235D01*
X0364451Y0229185D02*
X0366549D01*
X03655Y0228135D02*
Y0230235D01*
D15*
X0433382Y0261425D02*
X0434563Y0260244D01*
Y0205126D02*
X0442437D01*
Y0260244D01*
X0434563D02*
X0442437D01*
X0434563Y0205126D02*
Y0260244D01*
X0374843Y0129528D02*
Y0152756D01*
X0344843Y0129528D02*
X0374843D01*
X0344843D02*
Y0152756D01*
X0374843D01*
X044252Y0261417D02*
Y0285039D01*
X0434646Y0261417D02*
X044252D01*
X0434646D02*
Y0285039D01*
X044252D01*
Y0261417D02*
X0443701Y0260236D01*
X0443949Y0156D02*
Y0186D01*
X042072D02*
X0443949D01*
X042072Y0156D02*
Y0186D01*
Y0156D02*
X0443949D01*
X0106299Y0308976D02*
X0129528D01*
Y0278976D02*
Y0308976D01*
X0106299Y0278976D02*
X0129528D01*
X0106299D02*
Y0308976D01*
D16*
X0281103Y0288972D02*
D03*
X0403722Y0219685D02*
D03*
D17*
X0366093Y0151557D02*
D03*
X0353593D02*
D03*
D18*
X044275Y017725D02*
D03*
Y016475D02*
D03*
X0107497Y0300227D02*
D03*
Y0287727D02*
D03*
M02*
