G04*
G04 #@! TF.GenerationSoftware,Altium Limited,Altium Designer,21.0.8 (223)*
G04*
G04 Layer_Physical_Order=2*
G04 Layer_Color=16711680*
%FSTAX25Y25*%
%MOIN*%
G70*
G04*
G04 #@! TF.SameCoordinates,ACC495E8-7B1D-45BE-8A89-05A210FF911E*
G04*
G04*
G04 #@! TF.FilePolarity,Positive*
G04*
G01*
G75*
%ADD94C,0.01181*%
%ADD95C,0.01968*%
%ADD96C,0.03937*%
%ADD97C,0.05906*%
%ADD100C,0.02756*%
%ADD101O,0.12000X0.11000*%
%ADD102R,0.12000X0.11000*%
%ADD103C,0.05512*%
%ADD104R,0.05512X0.05512*%
%ADD105C,0.07500*%
%ADD106O,0.09843X0.11811*%
G04:AMPARAMS|DCode=107|XSize=70.87mil|YSize=62.99mil|CornerRadius=15.75mil|HoleSize=0mil|Usage=FLASHONLY|Rotation=270.000|XOffset=0mil|YOffset=0mil|HoleType=Round|Shape=RoundedRectangle|*
%AMROUNDEDRECTD107*
21,1,0.07087,0.03150,0,0,270.0*
21,1,0.03937,0.06299,0,0,270.0*
1,1,0.03150,-0.01575,-0.01968*
1,1,0.03150,-0.01575,0.01968*
1,1,0.03150,0.01575,0.01968*
1,1,0.03150,0.01575,-0.01968*
%
%ADD107ROUNDEDRECTD107*%
%ADD108O,0.06299X0.07087*%
%ADD109O,0.07500X0.06200*%
G04:AMPARAMS|DCode=110|XSize=62mil|YSize=75mil|CornerRadius=15.5mil|HoleSize=0mil|Usage=FLASHONLY|Rotation=90.000|XOffset=0mil|YOffset=0mil|HoleType=Round|Shape=RoundedRectangle|*
%AMROUNDEDRECTD110*
21,1,0.06200,0.04400,0,0,90.0*
21,1,0.03100,0.07500,0,0,90.0*
1,1,0.03100,0.02200,0.01550*
1,1,0.03100,0.02200,-0.01550*
1,1,0.03100,-0.02200,-0.01550*
1,1,0.03100,-0.02200,0.01550*
%
%ADD110ROUNDEDRECTD110*%
%ADD111O,0.07087X0.06299*%
G04:AMPARAMS|DCode=112|XSize=70.87mil|YSize=62.99mil|CornerRadius=15.75mil|HoleSize=0mil|Usage=FLASHONLY|Rotation=180.000|XOffset=0mil|YOffset=0mil|HoleType=Round|Shape=RoundedRectangle|*
%AMROUNDEDRECTD112*
21,1,0.07087,0.03150,0,0,180.0*
21,1,0.03937,0.06299,0,0,180.0*
1,1,0.03150,-0.01968,0.01575*
1,1,0.03150,0.01968,0.01575*
1,1,0.03150,0.01968,-0.01575*
1,1,0.03150,-0.01968,-0.01575*
%
%ADD112ROUNDEDRECTD112*%
%ADD113O,0.06000X0.08000*%
%ADD114R,0.06000X0.08000*%
%ADD115C,0.03937*%
%ADD116C,0.13780*%
G36*
X0451337Y0246965D02*
X0450837Y0246832D01*
X0443099Y0254569D01*
X0442663Y0255036D01*
X0442451Y0255301D01*
X0442274Y0255556D01*
X0442256Y0255587D01*
Y0256309D01*
X0442264Y0256347D01*
X0442256Y0256385D01*
Y0260063D01*
X0438978D01*
X0437905Y0261137D01*
X0438083Y0261566D01*
Y0264854D01*
X0434827D01*
Y0262624D01*
X0433658D01*
X0431494Y0264787D01*
Y0290685D01*
X0431392Y029146D01*
X0431093Y0292182D01*
X0430617Y0292802D01*
X0417117Y0306302D01*
X0416497Y0306778D01*
X0415775Y0307077D01*
X0415Y0307179D01*
X0313D01*
X0312225Y0307077D01*
X0311503Y0306778D01*
X0310883Y0306302D01*
X0301276Y0296695D01*
X0264173D01*
X0263398Y0296593D01*
X0262975Y0296418D01*
X0262676Y0296294D01*
X0262056Y0295818D01*
X0222417Y0256179D01*
X0215D01*
X0214805Y0256153D01*
X0214609D01*
X021442Y0256103D01*
X0214225Y0256077D01*
X0214044Y0256002D01*
X0213854Y0255951D01*
X0213684Y0255853D01*
X0213503Y0255778D01*
X0213347Y0255659D01*
X0213177Y025556D01*
X0213038Y0255422D01*
X0212883Y0255302D01*
X0212763Y0255147D01*
X0212625Y0255008D01*
X0212526Y0254838D01*
X0212407Y0254682D01*
X0212332Y0254501D01*
X0212234Y0254331D01*
X0212183Y0254141D01*
X0212108Y025396D01*
X0212082Y0253765D01*
X0212032Y0253576D01*
Y025338D01*
X0212006Y0253185D01*
X0212032Y025299D01*
Y0252794D01*
X0212082Y0252605D01*
X0212108Y025241D01*
X0212183Y0252229D01*
X0212234Y0252039D01*
X0212332Y0251869D01*
X0212407Y0251688D01*
X0212526Y0251532D01*
X0212625Y0251362D01*
X0212763Y0251223D01*
X0212883Y0251068D01*
X0213038Y0250948D01*
X0213177Y025081D01*
X0213347Y0250711D01*
X0213503Y0250592D01*
X0213684Y0250517D01*
X0213854Y0250419D01*
X0214044Y0250368D01*
X0214225Y0250293D01*
X021442Y0250267D01*
X0214609Y0250217D01*
X0214805D01*
X0215Y0250191D01*
X0223657D01*
X0224432Y0250293D01*
X0225154Y0250592D01*
X0225775Y0251068D01*
X0265413Y0290707D01*
X0302516D01*
X0303291Y0290809D01*
X0304013Y0291108D01*
X0304633Y0291584D01*
X031424Y0301191D01*
X041376D01*
X0417524Y0297427D01*
X0417326Y0296917D01*
X0416566Y0296603D01*
X0415898Y0295934D01*
X0415535Y029506D01*
Y0294114D01*
X0415898Y029324D01*
X0416566Y0292571D01*
X041744Y0292209D01*
X0417998D01*
X0422878Y0287328D01*
Y02335D01*
X0423002Y0232879D01*
X0423353Y0232353D01*
X0432042Y0223664D01*
X0432568Y0223313D01*
X0433189Y0223189D01*
X0434268D01*
X0434353Y0223174D01*
X0434478Y0223137D01*
X0434621Y0223079D01*
X0434782Y0222996D01*
X043496Y0222887D01*
X0435141Y0222759D01*
X0435585Y0222382D01*
X0435819Y0222153D01*
X0435898Y0222102D01*
X0436194Y0221806D01*
X043705Y0221311D01*
X0437715Y0221133D01*
Y0220615D01*
X043705Y0220437D01*
X0436194Y0219942D01*
X0435495Y0219243D01*
X0435333Y0218963D01*
X0435281Y0218909D01*
X043512Y0218659D01*
X0434978Y0218467D01*
X0434841Y0218309D01*
X0434711Y0218183D01*
X0434591Y0218087D01*
X043448Y0218016D01*
X0434379Y0217967D01*
X0434284Y0217935D01*
X0434206Y021792D01*
X0431058D01*
X0420147Y0228832D01*
X0419621Y0229183D01*
X0419Y0229307D01*
X0338172D01*
X0335622Y0231857D01*
Y0243513D01*
X0336416Y0244307D01*
X0336973D01*
X0337847Y0244669D01*
X0338516Y0245338D01*
X0338878Y0246212D01*
Y0247158D01*
X0338516Y0248032D01*
X0337847Y0248701D01*
X0336973Y0249063D01*
X0336027D01*
X0335153Y0248701D01*
X0334484Y0248032D01*
X0334122Y0247158D01*
Y0246601D01*
X0332853Y0245332D01*
X0332502Y0244806D01*
X0332378Y0244185D01*
Y0231185D01*
X0332502Y0230564D01*
X0332853Y0230038D01*
X0336353Y0226538D01*
X0336879Y0226187D01*
X03375Y0226063D01*
X0418328D01*
X042924Y0215152D01*
X0429766Y02148D01*
X0430386Y0214677D01*
X043449D01*
X0434569Y0214664D01*
X0434702Y0214631D01*
X0435114Y0214484D01*
X0435317Y0214394D01*
X0436182Y021393D01*
X04365Y0213735D01*
X0436595Y02137D01*
X043705Y0213437D01*
X0437715Y0213259D01*
Y0212741D01*
X043705Y0212563D01*
X0436194Y0212069D01*
X0435495Y0211369D01*
X0435Y0210513D01*
X0434744Y0209558D01*
Y0208569D01*
X0435Y0207613D01*
X0435495Y0206757D01*
X0436194Y0206058D01*
X043705Y0205563D01*
X0438005Y0205307D01*
X0438995D01*
X043995Y0205563D01*
X0440806Y0206058D01*
X0441505Y0206757D01*
X0442Y0207613D01*
X0442256Y0208569D01*
Y0209558D01*
X0442Y0210513D01*
X0441505Y0211369D01*
X0440806Y0212069D01*
X043995Y0212563D01*
X0439285Y0212741D01*
Y0213259D01*
X043995Y0213437D01*
X0440806Y0213931D01*
X0441505Y0214631D01*
X0442Y0215487D01*
X0442256Y0216442D01*
Y0217431D01*
X0442Y0218387D01*
X0441505Y0219243D01*
X0440806Y0219942D01*
X043995Y0220437D01*
X0439285Y0220615D01*
Y0221133D01*
X043995Y0221311D01*
X0440806Y0221806D01*
X0441505Y0222505D01*
X0442Y0223361D01*
X0442256Y0224317D01*
Y0225306D01*
X0442Y0226261D01*
X0441505Y0227117D01*
X0440806Y0227817D01*
X043995Y0228311D01*
X0439285Y0228489D01*
Y0229007D01*
X043995Y0229185D01*
X0440316Y0229396D01*
X0440194Y0229479D01*
X0439978Y0229601D01*
X0439756Y0229703D01*
X0439525Y0229787D01*
X0439287Y0229851D01*
X0439042Y0229896D01*
X0438788Y0229922D01*
X0438528Y0229929D01*
X0440783Y0232185D01*
X04385D01*
X0434746D01*
X0435Y0231235D01*
X0435495Y0230379D01*
X0436194Y022968D01*
X043705Y0229185D01*
X0437715Y0229007D01*
Y0228489D01*
X043705Y0228311D01*
X0436194Y0227817D01*
X0435906Y0227528D01*
X0435835Y0227485D01*
X0435348Y0227029D01*
X0435152Y0226871D01*
X043496Y0226735D01*
X0434782Y0226626D01*
X0434621Y0226543D01*
X0434478Y0226485D01*
X0434353Y0226448D01*
X0434268Y0226433D01*
X0433861D01*
X0426122Y0234172D01*
Y0260984D01*
X0426622Y0261191D01*
X04303Y0257513D01*
X043092Y0257037D01*
X0431219Y0256913D01*
X0431642Y0256738D01*
X0432417Y0256636D01*
X0433937D01*
X0434744Y0255829D01*
Y0252551D01*
X0437426D01*
X0437491Y0252051D01*
X043705Y0251933D01*
X0436194Y0251438D01*
X0435495Y0250739D01*
X0435Y0249883D01*
X0434746Y0248933D01*
X04385D01*
X0442254D01*
X0442236Y0249003D01*
X0442684Y0249262D01*
X0447477Y0244469D01*
Y0159523D01*
X0427662Y0139708D01*
X039533D01*
X0394473Y0140063D01*
X0393527D01*
X0392653Y0139701D01*
X0391984Y0139032D01*
X0391622Y0138158D01*
Y0137212D01*
X0391984Y0136338D01*
X0392653Y0135669D01*
X0393527Y0135307D01*
X0394473D01*
X039533Y0135662D01*
X04285D01*
X0429274Y0135816D01*
X0429931Y0136255D01*
X0450837Y015716D01*
X0451204Y0157063D01*
X0451337Y015697D01*
Y0122679D01*
X0208465D01*
Y0127554D01*
X0208997Y012855D01*
X0209336Y0129666D01*
X020945Y0130827D01*
Y0132795D01*
X0209336Y0133956D01*
X02093Y0134074D01*
X0209742Y0134339D01*
X0219715Y0124366D01*
X0219715Y0124366D01*
X0220541Y0123732D01*
X0221502Y0123334D01*
X0222534Y0123198D01*
X0222534Y0123198D01*
X03265D01*
X03265Y0123198D01*
X0327532Y0123334D01*
X0328493Y0123732D01*
X0329319Y0124366D01*
X0350627Y0145674D01*
X0351051Y0145391D01*
X03508Y0144784D01*
X0350671Y0143807D01*
X0354343D01*
Y014782D01*
X0353759Y0147744D01*
X0353153Y0147492D01*
X035287Y0147916D01*
X0378651Y0173698D01*
X0391349D01*
X0396681Y0168366D01*
X0397507Y0167732D01*
X0398468Y0167334D01*
X03995Y0167198D01*
X0400532Y0167334D01*
X0401493Y0167732D01*
X0402319Y0168366D01*
X0402953Y0169192D01*
X0403351Y0170153D01*
X0403487Y0171185D01*
X0403351Y0172217D01*
X0402953Y0173179D01*
X0402319Y0174004D01*
X0395819Y0180504D01*
X0394993Y0181138D01*
X0394032Y0181536D01*
X0393Y0181672D01*
X0393Y0181672D01*
X0377D01*
X0375968Y0181536D01*
X0375007Y0181138D01*
X0374181Y0180504D01*
X0374181Y0180504D01*
X0324849Y0131172D01*
X0224185D01*
X0210495Y0144862D01*
X0209669Y0145496D01*
X0208708Y0145894D01*
X0208465Y0145926D01*
Y0175428D01*
X0208997Y0176424D01*
X0209336Y017754D01*
X020945Y0178701D01*
Y0180669D01*
X0209336Y018183D01*
X0208997Y0182946D01*
X0208465Y0183942D01*
Y0196161D01*
X0191258D01*
X0185617Y0201802D01*
X0184997Y0202278D01*
X0184275Y0202577D01*
X01835Y0202679D01*
X0173D01*
X0172225Y0202577D01*
X0171503Y0202278D01*
X0170883Y0201802D01*
X0165242Y0196161D01*
X0148425D01*
Y0194241D01*
X0147925Y0194209D01*
X0147892Y019446D01*
X0147593Y0195182D01*
X0147117Y0195802D01*
X0146497Y0196278D01*
X0145775Y0196577D01*
X0145Y0196679D01*
X0144225Y0196577D01*
X0143503Y0196278D01*
X0142883Y0195802D01*
X0142407Y0195182D01*
X0142108Y019446D01*
X0142006Y0193685D01*
Y0170685D01*
X0142108Y016991D01*
X0142407Y0169188D01*
X0142883Y0168568D01*
X0147383Y0164068D01*
X0148003Y0163592D01*
X0148425Y0163417D01*
Y014603D01*
X0125293D01*
X0112239Y0159084D01*
Y0285506D01*
X0112739Y0285753D01*
X0113262Y0285352D01*
X0114271Y0284934D01*
X0115248Y0284805D01*
Y0288976D01*
X0115748D01*
Y0289476D01*
X0120261D01*
X0120185Y029006D01*
X0119766Y0291069D01*
X0119101Y0291936D01*
X0118234Y0292601D01*
X0117225Y0293019D01*
X0116142Y0293162D01*
X0115885D01*
X0115678Y0293662D01*
X0116821Y0294805D01*
X0117717D01*
X0118389Y0294893D01*
X0119015Y0295152D01*
X0119553Y0295565D01*
X0119966Y0296103D01*
X0120225Y0296729D01*
X0120314Y0297402D01*
Y0300551D01*
X0120225Y0301223D01*
X0119966Y030185D01*
X0119553Y0302388D01*
X0119015Y03028D01*
X0118389Y030306D01*
X0117717Y0303148D01*
X0113779D01*
X0113107Y030306D01*
X0112481Y03028D01*
X0111943Y0302388D01*
X011153Y030185D01*
X0111271Y0301223D01*
X0111182Y0300551D01*
Y0300443D01*
X0109783Y0299044D01*
X0109593Y0298898D01*
X0109593Y0298898D01*
X0105433Y0294737D01*
X0104799Y0293912D01*
X0104401Y029295D01*
X0104265Y0291918D01*
X0104265Y0291918D01*
Y0157433D01*
X0104265Y0157433D01*
X0104401Y0156401D01*
X0104799Y015544D01*
X0105433Y0154614D01*
X0120823Y0139224D01*
X0120823Y0139224D01*
X0121648Y0138591D01*
X012261Y0138192D01*
X0123642Y0138056D01*
X0123642Y0138056D01*
X0148425D01*
Y0135862D01*
X0148003Y0135072D01*
X0147664Y0133956D01*
X014755Y0132795D01*
Y0130827D01*
X0147664Y0129666D01*
X0148003Y012855D01*
X0148425Y012776D01*
Y0122679D01*
X0102994D01*
Y0333226D01*
X0264117D01*
X0264405Y0332726D01*
X0264234Y0332429D01*
X0264061Y0331784D01*
X0269939D01*
X0269766Y0332429D01*
X0269595Y0332726D01*
X0269883Y0333226D01*
X033797D01*
Y0311685D01*
X0338072Y031091D01*
X0338372Y0310188D01*
X0338847Y0309568D01*
X0339468Y0309092D01*
X034019Y0308793D01*
X0340965Y0308691D01*
X0413535D01*
X041431Y0308793D01*
X0415032Y0309092D01*
X0415653Y0309568D01*
X0416128Y0310188D01*
X0416428Y031091D01*
X041653Y0311685D01*
Y0333226D01*
X0451337D01*
Y0246965D01*
D02*
G37*
G36*
X0441132Y0256194D02*
X0441077Y0256013D01*
Y0255804D01*
X0441132Y0255568D01*
X0441244Y0255303D01*
X0441411Y0255011D01*
X0441634Y0254691D01*
X0441891Y0254369D01*
X0442669Y0253536D01*
X0443185Y0253014D01*
X0441793Y0251622D01*
X0441271Y0252138D01*
X0439984Y0253266D01*
X0439796Y0253396D01*
X0439504Y0253563D01*
X043924Y0253675D01*
X0439003Y025373D01*
X0438794D01*
X0438613Y0253675D01*
X043846Y0253563D01*
X0439009Y0254112D01*
X0438816Y025423D01*
X0438636Y0254311D01*
X0438499Y0254339D01*
X0440469Y0256308D01*
X0440496Y0256171D01*
X0440577Y0255992D01*
X0440695Y0255798D01*
X0441244Y0256347D01*
X0441132Y0256194D01*
D02*
G37*
G36*
X0336488Y0245504D02*
X0336421Y02455D01*
X0336351Y0245487D01*
X0336278Y0245464D01*
X0336202Y0245432D01*
X0336124Y024539D01*
X0336043Y024534D01*
X033596Y024528D01*
X0335874Y024521D01*
X0335693Y0245043D01*
X0334858Y0245878D01*
X0334946Y024597D01*
X0335094Y0246145D01*
X0335155Y0246228D01*
X0335205Y0246309D01*
X0335247Y0246387D01*
X0335279Y0246463D01*
X0335302Y0246536D01*
X0335315Y0246606D01*
X0335319Y0246673D01*
X0336488Y0245504D01*
D02*
G37*
G36*
X0436532Y0222882D02*
X0436272Y0223136D01*
X0435767Y0223565D01*
X0435522Y0223739D01*
X0435282Y0223886D01*
X0435046Y0224006D01*
X0434816Y02241D01*
X043459Y0224167D01*
X043437Y0224207D01*
X0434155Y022422D01*
Y0225402D01*
X043437Y0225415D01*
X043459Y0225455D01*
X0434816Y0225522D01*
X0435046Y0225616D01*
X0435282Y0225736D01*
X0435522Y0225884D01*
X0435767Y0226058D01*
X0436017Y0226258D01*
X0436532Y022674D01*
Y0222882D01*
D02*
G37*
G36*
X0437032Y0214604D02*
X043669Y0214814D01*
X0435766Y0215311D01*
X0435492Y0215432D01*
X0434996Y0215609D01*
X0434773Y0215664D01*
X0434568Y0215697D01*
X043438Y0215708D01*
X0434091Y0216889D01*
X0434321Y0216904D01*
X0434545Y0216948D01*
X0434764Y0217021D01*
X0434977Y0217124D01*
X0435185Y0217256D01*
X0435387Y0217418D01*
X0435583Y0217609D01*
X0435774Y0217829D01*
X0435959Y0218079D01*
X0436138Y0218358D01*
X0437032Y0214604D01*
D02*
G37*
%LPC*%
G36*
X0269939Y0330784D02*
X02675D01*
Y0328344D01*
X0268146Y0328517D01*
X0268823Y0328908D01*
X0269375Y0329461D01*
X0269766Y0330138D01*
X0269939Y0330784D01*
D02*
G37*
G36*
X02665D02*
X0264061D01*
X0264234Y0330138D01*
X0264625Y0329461D01*
X0265177Y0328908D01*
X0265854Y0328517D01*
X02665Y0328344D01*
Y0330784D01*
D02*
G37*
G36*
X0443297Y0332299D02*
X0441743D01*
X0440218Y0331996D01*
X0438783Y0331401D01*
X043749Y0330538D01*
X0436391Y0329439D01*
X0435528Y0328147D01*
X0434933Y0326711D01*
X043463Y0325186D01*
Y0323632D01*
X0434933Y0322108D01*
X0435528Y0320672D01*
X0436391Y031938D01*
X043749Y0318281D01*
X0438783Y0317418D01*
X0440218Y0316823D01*
X0441743Y031652D01*
X0443297D01*
X0444821Y0316823D01*
X0446257Y0317418D01*
X0447549Y0318281D01*
X0448648Y031938D01*
X0449511Y0320672D01*
X0450106Y0322108D01*
X045041Y0323632D01*
Y0325186D01*
X0450106Y0326711D01*
X0449511Y0328147D01*
X0448648Y0329439D01*
X0447549Y0330538D01*
X0446257Y0331401D01*
X0444821Y0331996D01*
X0443297Y0332299D01*
D02*
G37*
G36*
X0112588D02*
X0111034D01*
X010951Y0331996D01*
X0108074Y0331401D01*
X0106782Y0330538D01*
X0105683Y0329439D01*
X0104819Y0328147D01*
X0104225Y0326711D01*
X0103921Y0325186D01*
Y0323632D01*
X0104225Y0322108D01*
X0104819Y0320672D01*
X0105683Y031938D01*
X0106782Y0318281D01*
X0108074Y0317418D01*
X010951Y0316823D01*
X0111034Y031652D01*
X0112588D01*
X0114112Y0316823D01*
X0115548Y0317418D01*
X0116841Y0318281D01*
X0117939Y031938D01*
X0118803Y0320672D01*
X0119398Y0322108D01*
X0119701Y0323632D01*
Y0325186D01*
X0119398Y0326711D01*
X0118803Y0328147D01*
X0117939Y0329439D01*
X0116841Y0330538D01*
X0115548Y0331401D01*
X0114112Y0331996D01*
X0112588Y0332299D01*
D02*
G37*
G36*
X043915Y0312635D02*
X043785D01*
X043678Y0312494D01*
X0435782Y0312081D01*
X0434926Y0311424D01*
X0434269Y0310568D01*
X0433855Y030957D01*
X0433715Y03085D01*
X0433855Y030743D01*
X0434269Y0306432D01*
X0434926Y0305576D01*
X0435782Y0304919D01*
X043678Y0304505D01*
X043785Y0304365D01*
X043915D01*
X044022Y0304505D01*
X0441218Y0304919D01*
X0442074Y0305576D01*
X0442731Y0306432D01*
X0443145Y030743D01*
X0443285Y03085D01*
X0443145Y030957D01*
X0442731Y0310568D01*
X0442074Y0311424D01*
X0441218Y0312081D01*
X044022Y0312494D01*
X043915Y0312635D01*
D02*
G37*
G36*
X0267429Y0305123D02*
Y0303256D01*
X0269296D01*
X0268945Y0304103D01*
X0268276Y0304772D01*
X0267429Y0305123D01*
D02*
G37*
G36*
X0266429D02*
X0265582Y0304772D01*
X0264913Y0304103D01*
X0264562Y0303256D01*
X0266429D01*
Y0305123D01*
D02*
G37*
G36*
X0269296Y0302256D02*
X0267429D01*
Y0300389D01*
X0268276Y030074D01*
X0268945Y0301409D01*
X0269296Y0302256D01*
D02*
G37*
G36*
X0266429D02*
X0264562D01*
X0264913Y0301409D01*
X0265582Y030074D01*
X0266429Y0300389D01*
Y0302256D01*
D02*
G37*
G36*
X04407Y030265D02*
X04363D01*
X0435305Y0302452D01*
X0434461Y0301888D01*
X0433898Y0301045D01*
X04337Y030005D01*
Y029695D01*
X0433898Y0295955D01*
X0434461Y0295111D01*
X0435305Y0294548D01*
X04363Y029435D01*
X04407D01*
X0441695Y0294548D01*
X0442538Y0295111D01*
X0443102Y0295955D01*
X04433Y029695D01*
Y030005D01*
X0443102Y0301045D01*
X0442538Y0301888D01*
X0441695Y0302452D01*
X04407Y030265D01*
D02*
G37*
G36*
X0120261Y0288476D02*
X0116248D01*
Y0284805D01*
X0117225Y0284934D01*
X0118234Y0285352D01*
X0119101Y0286017D01*
X0119766Y0286884D01*
X0120185Y0287893D01*
X0120261Y0288476D01*
D02*
G37*
G36*
X0382079Y0288421D02*
X0381133D01*
X0380259Y0288059D01*
X037959Y028739D01*
X0379228Y0286516D01*
Y028557D01*
X037959Y0284696D01*
X0380259Y0284027D01*
X0381133Y0283665D01*
X0382079D01*
X0382953Y0284027D01*
X0383622Y0284696D01*
X0383984Y028557D01*
Y0286516D01*
X0383622Y028739D01*
X0382953Y0288059D01*
X0382079Y0288421D01*
D02*
G37*
G36*
X0373292D02*
X0372346D01*
X0371472Y0288059D01*
X0370803Y028739D01*
X0370441Y0286516D01*
Y028557D01*
X0370803Y0284696D01*
X0371472Y0284027D01*
X0372346Y0283665D01*
X0373292D01*
X0374166Y0284027D01*
X0374835Y0284696D01*
X0375197Y028557D01*
Y0286516D01*
X0374835Y028739D01*
X0374166Y0288059D01*
X0373292Y0288421D01*
D02*
G37*
G36*
X0386473Y0284028D02*
X0385527D01*
X0384653Y0283665D01*
X0383984Y0282997D01*
X0383622Y0282123D01*
Y0281177D01*
X0383984Y0280303D01*
X0384653Y0279634D01*
X0385527Y0279272D01*
X0386473D01*
X0387347Y0279634D01*
X0388016Y0280303D01*
X0388378Y0281177D01*
Y0282123D01*
X0388016Y0282997D01*
X0387347Y0283665D01*
X0386473Y0284028D01*
D02*
G37*
G36*
X0377686D02*
X037674D01*
X0375866Y0283665D01*
X0375197Y0282997D01*
X0374835Y0282123D01*
Y0281177D01*
X0375197Y0280303D01*
X0375866Y0279634D01*
X037674Y0279272D01*
X0377686D01*
X037856Y0279634D01*
X0379228Y0280303D01*
X0379591Y0281177D01*
Y0282123D01*
X0379228Y0282997D01*
X037856Y0283665D01*
X0377686Y0284028D01*
D02*
G37*
G36*
X0368898D02*
X0367952D01*
X0367078Y0283665D01*
X0366409Y0282997D01*
X0366047Y0282123D01*
Y0281177D01*
X0366409Y0280303D01*
X0367078Y0279634D01*
X0367952Y0279272D01*
X0368898D01*
X0369772Y0279634D01*
X0370441Y0280303D01*
X0370803Y0281177D01*
Y0282123D01*
X0370441Y0282997D01*
X0369772Y0283665D01*
X0368898Y0284028D01*
D02*
G37*
G36*
X0382079Y0279634D02*
X0381133D01*
X0380259Y0279272D01*
X037959Y0278603D01*
X0379228Y0277729D01*
Y0276783D01*
X037959Y0275909D01*
X0380259Y027524D01*
X0381133Y0274878D01*
X0382079D01*
X0382953Y027524D01*
X0383622Y0275909D01*
X0383984Y0276783D01*
Y0277729D01*
X0383622Y0278603D01*
X0382953Y0279272D01*
X0382079Y0279634D01*
D02*
G37*
G36*
X0373292D02*
X0372346D01*
X0371472Y0279272D01*
X0370803Y0278603D01*
X0370441Y0277729D01*
Y0276783D01*
X0370803Y0275909D01*
X0371472Y027524D01*
X0372346Y0274878D01*
X0373292D01*
X0374166Y027524D01*
X0374835Y0275909D01*
X0375197Y0276783D01*
Y0277729D01*
X0374835Y0278603D01*
X0374166Y0279272D01*
X0373292Y0279634D01*
D02*
G37*
G36*
X0270102Y0274919D02*
X0269976D01*
Y0270669D01*
X0274226D01*
Y0270795D01*
X0273903Y0272003D01*
X0273277Y0273086D01*
X0272393Y027397D01*
X027131Y0274596D01*
X0270102Y0274919D01*
D02*
G37*
G36*
X0268976D02*
X0268851D01*
X0267643Y0274596D01*
X026656Y027397D01*
X0265675Y0273086D01*
X026505Y0272003D01*
X0264726Y0270795D01*
Y0270669D01*
X0268976D01*
Y0274919D01*
D02*
G37*
G36*
X0386473Y027524D02*
X0385527D01*
X0384653Y0274878D01*
X0383984Y0274209D01*
X0383622Y0273335D01*
Y0272389D01*
X0383984Y0271515D01*
X0384653Y0270846D01*
X0385527Y0270484D01*
X0386473D01*
X0387347Y0270846D01*
X0388016Y0271515D01*
X0388378Y0272389D01*
Y0273335D01*
X0388016Y0274209D01*
X0387347Y0274878D01*
X0386473Y027524D01*
D02*
G37*
G36*
X0377686D02*
X037674D01*
X0375866Y0274878D01*
X0375197Y0274209D01*
X0374835Y0273335D01*
Y0272389D01*
X0375197Y0271515D01*
X0375866Y0270846D01*
X037674Y0270484D01*
X0377686D01*
X037856Y0270846D01*
X0379228Y0271515D01*
X0379591Y0272389D01*
Y0273335D01*
X0379228Y0274209D01*
X037856Y0274878D01*
X0377686Y027524D01*
D02*
G37*
G36*
X0368898D02*
X0367952D01*
X0367078Y0274878D01*
X0366409Y0274209D01*
X0366047Y0273335D01*
Y0272389D01*
X0366409Y0271515D01*
X0367078Y0270846D01*
X0367952Y0270484D01*
X0368898D01*
X0369772Y0270846D01*
X0370441Y0271515D01*
X0370803Y0272389D01*
Y0273335D01*
X0370441Y0274209D01*
X0369772Y0274878D01*
X0368898Y027524D01*
D02*
G37*
G36*
X0373292Y0271335D02*
X0372346D01*
X0371472Y0270973D01*
X0370803Y0270304D01*
X0370441Y026943D01*
Y0268484D01*
X0370803Y026761D01*
X0371472Y0266941D01*
X0372346Y0266579D01*
X0373292D01*
X0374166Y0266941D01*
X0374835Y026761D01*
X0375197Y0268484D01*
Y026943D01*
X0374835Y0270304D01*
X0374166Y0270973D01*
X0373292Y0271335D01*
D02*
G37*
G36*
X0382079Y0270847D02*
X0381133D01*
X0380259Y0270484D01*
X037959Y0269815D01*
X0379228Y0268941D01*
Y0267996D01*
X037959Y0267122D01*
X0380259Y0266453D01*
X0381133Y0266091D01*
X0382079D01*
X0382953Y0266453D01*
X0383622Y0267122D01*
X0383984Y0267996D01*
Y0268941D01*
X0383622Y0269815D01*
X0382953Y0270484D01*
X0382079Y0270847D01*
D02*
G37*
G36*
X0439077Y0284858D02*
X0438088D01*
X0437133Y0284602D01*
X0436276Y0284108D01*
X0435577Y0283409D01*
X0435083Y0282552D01*
X0434827Y0281597D01*
Y0280608D01*
X0435083Y0279653D01*
X0435577Y0278796D01*
X0436276Y0278097D01*
X0437133Y0277602D01*
X0437798Y0277424D01*
Y0276906D01*
X0437133Y0276728D01*
X0436276Y0276234D01*
X0435577Y0275535D01*
X0435083Y0274678D01*
X0434827Y0273723D01*
Y0272734D01*
X0435083Y0271779D01*
X0435577Y0270922D01*
X0436276Y0270223D01*
X0437133Y0269728D01*
X0437574Y026961D01*
X0437508Y026911D01*
X0434827D01*
Y0265854D01*
X0438583D01*
X0442339D01*
Y026911D01*
X0439657D01*
X0439591Y026961D01*
X0440032Y0269728D01*
X0440889Y0270223D01*
X0441588Y0270922D01*
X0442083Y0271779D01*
X0442339Y0272734D01*
Y0273723D01*
X0442083Y0274678D01*
X0441588Y0275535D01*
X0440889Y0276234D01*
X0440032Y0276728D01*
X0439367Y0276906D01*
Y0277424D01*
X0440032Y0277602D01*
X0440889Y0278097D01*
X0441588Y0278796D01*
X0442083Y0279653D01*
X0442339Y0280608D01*
Y0281597D01*
X0442083Y0282552D01*
X0441588Y0283409D01*
X0440889Y0284108D01*
X0440032Y0284602D01*
X0439077Y0284858D01*
D02*
G37*
G36*
X0289302Y0275219D02*
X0288051D01*
X0286843Y0274896D01*
X028576Y027427D01*
X0284875Y0273386D01*
X028425Y0272303D01*
X0283926Y0271095D01*
Y0269844D01*
X028425Y0268636D01*
X0284875Y0267553D01*
X028576Y0266668D01*
X0286843Y0266043D01*
X0288051Y0265719D01*
X0289302D01*
X029051Y0266043D01*
X0291593Y0266668D01*
X0292477Y0267553D01*
X0293103Y0268636D01*
X0293426Y0269844D01*
Y0271095D01*
X0293103Y0272303D01*
X0292477Y0273386D01*
X0291593Y027427D01*
X029051Y0274896D01*
X0289302Y0275219D01*
D02*
G37*
G36*
X0274226Y0269669D02*
X0269976D01*
Y0265419D01*
X0270102D01*
X027131Y0265743D01*
X0272393Y0266368D01*
X0273277Y0267253D01*
X0273903Y0268336D01*
X0274226Y0269544D01*
Y0269669D01*
D02*
G37*
G36*
X0268976D02*
X0264726D01*
Y0269544D01*
X026505Y0268336D01*
X0265675Y0267253D01*
X026656Y0266368D01*
X0267643Y0265743D01*
X0268851Y0265419D01*
X0268976D01*
Y0269669D01*
D02*
G37*
G36*
X0442339Y0264854D02*
X0439083D01*
Y0261598D01*
X0442339D01*
Y0264854D01*
D02*
G37*
G36*
X0270502Y0249819D02*
X0270376D01*
Y0245569D01*
X0274626D01*
Y0245695D01*
X0274303Y0246903D01*
X0273677Y0247986D01*
X0272793Y024887D01*
X027171Y0249496D01*
X0270502Y0249819D01*
D02*
G37*
G36*
X0269376D02*
X0269251D01*
X0268043Y0249496D01*
X026696Y024887D01*
X0266075Y0247986D01*
X026545Y0246903D01*
X0265126Y0245695D01*
Y0245569D01*
X0269376D01*
Y0249819D01*
D02*
G37*
G36*
X0274626Y0244569D02*
X0270376D01*
Y0240319D01*
X0270502D01*
X027171Y0240643D01*
X0272793Y0241268D01*
X0273677Y0242153D01*
X0274303Y0243236D01*
X0274626Y0244444D01*
Y0244569D01*
D02*
G37*
G36*
X0269376D02*
X0265126D01*
Y0244444D01*
X026545Y0243236D01*
X0266075Y0242153D01*
X026696Y0241268D01*
X0268043Y0240643D01*
X0269251Y0240319D01*
X0269376D01*
Y0244569D01*
D02*
G37*
G36*
X0417993Y0268815D02*
X0417047D01*
X0416173Y0268453D01*
X0415504Y0267784D01*
X0415142Y026691D01*
Y0265964D01*
X0415504Y026509D01*
X0416173Y0264421D01*
X0417047Y0264059D01*
X0417924D01*
X0418457Y0263526D01*
Y0258935D01*
X0413463Y0253941D01*
X0319134D01*
X0318514Y0253818D01*
X0317988Y0253466D01*
X0301328Y0236807D01*
X0293672D01*
X0290607Y0239871D01*
X0290631Y0239979D01*
X0290696Y0240165D01*
X0290799Y0240386D01*
X0290943Y0240638D01*
X029113Y0240918D01*
X0291354Y0241213D01*
X0291961Y0241904D01*
X0292327Y0242275D01*
X029238Y0242355D01*
X0292777Y0242753D01*
X0293403Y0243836D01*
X0293726Y0245044D01*
Y0246295D01*
X0293403Y0247503D01*
X0292777Y0248586D01*
X0291893Y024947D01*
X029081Y0250096D01*
X0289602Y0250419D01*
X0288351D01*
X0287143Y0250096D01*
X028606Y024947D01*
X0285175Y0248586D01*
X028455Y0247503D01*
X0284226Y0246295D01*
Y0245044D01*
X028455Y0243836D01*
X0285175Y0242753D01*
X0285573Y0242355D01*
X0285626Y0242275D01*
X0285992Y0241904D01*
X0286599Y0241213D01*
X0286823Y0240918D01*
X028701Y0240638D01*
X0287154Y0240386D01*
X0287257Y0240165D01*
X0287322Y0239979D01*
X0287354Y023983D01*
X0287355Y0239827D01*
Y0239209D01*
X0287355Y0239209D01*
X0287478Y0238588D01*
X028783Y0238062D01*
X0291853Y0234038D01*
X0292379Y0233687D01*
X0293Y0233563D01*
X0302D01*
X0302621Y0233687D01*
X0303147Y0234038D01*
X0319806Y0250698D01*
X0414134D01*
X0414755Y0250821D01*
X0415281Y0251173D01*
X0421226Y0257117D01*
X0421577Y0257643D01*
X04217Y0258264D01*
Y0264198D01*
X0421577Y0264818D01*
X0421226Y0265344D01*
X0419898Y0266672D01*
Y026691D01*
X0419536Y0267784D01*
X0418867Y0268453D01*
X0417993Y0268815D01*
D02*
G37*
G36*
X0442254Y0247933D02*
X04385D01*
X0434746D01*
X0435Y0246983D01*
X0435495Y0246127D01*
X0436194Y0245428D01*
X043705Y0244933D01*
X0437715Y0244755D01*
Y0244237D01*
X043705Y0244059D01*
X0436194Y0243565D01*
X0435495Y0242865D01*
X0435Y0242009D01*
X0434744Y0241054D01*
Y0240065D01*
X0435Y0239109D01*
X0435495Y0238253D01*
X0436194Y0237554D01*
X043705Y0237059D01*
X0437715Y0236881D01*
Y0236363D01*
X043705Y0236185D01*
X0436194Y023569D01*
X0435495Y0234991D01*
X0435Y0234135D01*
X0434746Y0233185D01*
X04385D01*
X0442254D01*
X0442Y0234135D01*
X0441505Y0234991D01*
X0440806Y023569D01*
X043995Y0236185D01*
X0439285Y0236363D01*
Y0236881D01*
X043995Y0237059D01*
X0440806Y0237554D01*
X0441505Y0238253D01*
X0442Y0239109D01*
X0442256Y0240065D01*
Y0241054D01*
X0442Y0242009D01*
X0441505Y0242865D01*
X0440806Y0243565D01*
X043995Y0244059D01*
X0439285Y0244237D01*
Y0244755D01*
X043995Y0244933D01*
X0440806Y0245428D01*
X0441505Y0246127D01*
X0442Y0246983D01*
X0442254Y0247933D01*
D02*
G37*
G36*
Y0232185D02*
X0441284D01*
X0441289Y0232143D01*
X0441334Y0231898D01*
X0441398Y023166D01*
X0441482Y023143D01*
X0441584Y0231207D01*
X0441706Y0230992D01*
X0441789Y0230869D01*
X0442Y0231235D01*
X0442254Y0232185D01*
D02*
G37*
G36*
X03895Y0209552D02*
Y0207685D01*
X0391367D01*
X0391016Y0208532D01*
X0390347Y0209201D01*
X03895Y0209552D01*
D02*
G37*
G36*
X03885D02*
X0387653Y0209201D01*
X0386984Y0208532D01*
X0386633Y0207685D01*
X03885D01*
Y0209552D01*
D02*
G37*
G36*
X0391367Y0206685D02*
X03895D01*
Y0204818D01*
X0390347Y0205169D01*
X0391016Y0205838D01*
X0391367Y0206685D01*
D02*
G37*
G36*
X03885D02*
X0386633D01*
X0386984Y0205838D01*
X0387653Y0205169D01*
X03885Y0204818D01*
Y0206685D01*
D02*
G37*
G36*
X02605Y02794D02*
X0260305Y0279374D01*
X0260109D01*
X025992Y0279323D01*
X0259725Y0279298D01*
X0259544Y0279222D01*
X0259354Y0279172D01*
X0259184Y0279074D01*
X0259003Y0278998D01*
X0258847Y0278879D01*
X0258677Y0278781D01*
X0258539Y0278642D01*
X0258383Y0278523D01*
X0258263Y0278367D01*
X0258125Y0278228D01*
X0258027Y0278058D01*
X0257907Y0277903D01*
X0257832Y0277721D01*
X0257734Y0277551D01*
X0257683Y0277362D01*
X0257608Y027718D01*
X0257582Y0276986D01*
X0257531Y0276796D01*
Y02766D01*
X0257506Y0276406D01*
Y0213536D01*
X0257608Y0212761D01*
X0257907Y0212038D01*
X0258383Y0211418D01*
X0262583Y0207219D01*
X0262738Y0207099D01*
X0262877Y020696D01*
X0263047Y0206862D01*
X0263203Y0206743D01*
X0263384Y0206668D01*
X0263554Y020657D01*
X0263744Y0206519D01*
X0263925Y0206444D01*
X026412Y0206418D01*
X0264309Y0206367D01*
X0264505D01*
X02647Y0206342D01*
X0264894Y0206367D01*
X0265091D01*
X026528Y0206418D01*
X0265475Y0206444D01*
X0265656Y0206519D01*
X0265846Y020657D01*
X0266016Y0206668D01*
X0266197Y0206743D01*
X0266353Y0206862D01*
X0266523Y020696D01*
X0266657Y0207095D01*
X0266657Y0207095D01*
X0266676Y0207107D01*
X0266692Y0207114D01*
X02668Y020714D01*
X0269412Y0207313D01*
X0374511D01*
X0381629Y0200195D01*
X0381984Y0199338D01*
X0382653Y0198669D01*
X0383527Y0198307D01*
X0384473D01*
X0385347Y0198669D01*
X0386016Y0199338D01*
X0386378Y0200212D01*
Y0201158D01*
X0386016Y0202032D01*
X0385347Y0202701D01*
X038449Y0203056D01*
X037678Y0210766D01*
X0376124Y0211205D01*
X0375349Y0211359D01*
X0269181D01*
X0267884Y0211403D01*
X0267099Y0211479D01*
X0266848Y021152D01*
X0266719Y0211551D01*
X0263494Y0214776D01*
Y0276406D01*
X0263469Y02766D01*
Y0276796D01*
X0263418Y0276986D01*
X0263392Y027718D01*
X0263317Y0277362D01*
X0263266Y0277551D01*
X0263168Y0277721D01*
X0263093Y0277903D01*
X0262973Y0278058D01*
X0262875Y0278228D01*
X0262737Y0278367D01*
X0262617Y0278523D01*
X0262461Y0278642D01*
X0262323Y0278781D01*
X0262153Y0278879D01*
X0261997Y0278998D01*
X0261816Y0279074D01*
X0261646Y0279172D01*
X0261456Y0279222D01*
X0261275Y0279298D01*
X026108Y0279323D01*
X0260891Y0279374D01*
X0260695D01*
X02605Y02794D01*
D02*
G37*
G36*
X0302665Y0198838D02*
X0301621Y01987D01*
X0300648Y0198297D01*
X0299813Y0197656D01*
X0299171Y019682D01*
X0298768Y0195847D01*
X0298631Y0194803D01*
Y0192803D01*
X0298768Y0191759D01*
X0299171Y0190786D01*
X0299813Y018995D01*
X0300648Y0189309D01*
X0301621Y0188906D01*
X0302665Y0188769D01*
X030371Y0188906D01*
X0304683Y0189309D01*
X0305518Y018995D01*
X0306159Y0190786D01*
X0306562Y0191759D01*
X03067Y0192803D01*
Y0194803D01*
X0306562Y0195847D01*
X0306159Y019682D01*
X0305518Y0197656D01*
X0304683Y0198297D01*
X030371Y01987D01*
X0302665Y0198838D01*
D02*
G37*
G36*
X0292665D02*
X0291621Y01987D01*
X0290648Y0198297D01*
X0289812Y0197656D01*
X0289171Y019682D01*
X0288768Y0195847D01*
X0288631Y0194803D01*
Y0192803D01*
X0288768Y0191759D01*
X0289171Y0190786D01*
X0289812Y018995D01*
X0290648Y0189309D01*
X0291621Y0188906D01*
X0292665Y0188769D01*
X029371Y0188906D01*
X0294683Y0189309D01*
X0295518Y018995D01*
X0296159Y0190786D01*
X0296562Y0191759D01*
X02967Y0192803D01*
Y0194803D01*
X0296562Y0195847D01*
X0296159Y019682D01*
X0295518Y0197656D01*
X0294683Y0198297D01*
X029371Y01987D01*
X0292665Y0198838D01*
D02*
G37*
G36*
X0282665D02*
X0281621Y01987D01*
X0280648Y0198297D01*
X0279813Y0197656D01*
X0279171Y019682D01*
X0278768Y0195847D01*
X0278631Y0194803D01*
Y0192803D01*
X0278768Y0191759D01*
X0279171Y0190786D01*
X0279813Y018995D01*
X0280648Y0189309D01*
X0281621Y0188906D01*
X0282665Y0188769D01*
X028371Y0188906D01*
X0284683Y0189309D01*
X0285518Y018995D01*
X0286159Y0190786D01*
X0286562Y0191759D01*
X02867Y0192803D01*
Y0194803D01*
X0286562Y0195847D01*
X0286159Y019682D01*
X0285518Y0197656D01*
X0284683Y0198297D01*
X028371Y01987D01*
X0282665Y0198838D01*
D02*
G37*
G36*
X0272665D02*
X0271621Y01987D01*
X0270648Y0198297D01*
X0269812Y0197656D01*
X0269171Y019682D01*
X0268768Y0195847D01*
X0268631Y0194803D01*
Y0192803D01*
X0268768Y0191759D01*
X0269171Y0190786D01*
X0269812Y018995D01*
X0270648Y0189309D01*
X0271621Y0188906D01*
X0272665Y0188769D01*
X027371Y0188906D01*
X0274683Y0189309D01*
X0275518Y018995D01*
X0276159Y0190786D01*
X0276562Y0191759D01*
X02767Y0192803D01*
Y0194803D01*
X0276562Y0195847D01*
X0276159Y019682D01*
X0275518Y0197656D01*
X0274683Y0198297D01*
X027371Y01987D01*
X0272665Y0198838D01*
D02*
G37*
G36*
X0262665D02*
X0261621Y01987D01*
X0260648Y0198297D01*
X0259812Y0197656D01*
X0259171Y019682D01*
X0258768Y0195847D01*
X0258631Y0194803D01*
Y0192803D01*
X0258768Y0191759D01*
X0259171Y0190786D01*
X0259812Y018995D01*
X0260648Y0189309D01*
X0261621Y0188906D01*
X0262665Y0188769D01*
X026371Y0188906D01*
X0264683Y0189309D01*
X0265518Y018995D01*
X0266159Y0190786D01*
X0266562Y0191759D01*
X02667Y0192803D01*
Y0194803D01*
X0266562Y0195847D01*
X0266159Y019682D01*
X0265518Y0197656D01*
X0264683Y0198297D01*
X026371Y01987D01*
X0262665Y0198838D01*
D02*
G37*
G36*
X0252665D02*
X0251621Y01987D01*
X0250648Y0198297D01*
X0249813Y0197656D01*
X0249171Y019682D01*
X0248768Y0195847D01*
X0248631Y0194803D01*
Y0192803D01*
X0248768Y0191759D01*
X0249171Y0190786D01*
X0249813Y018995D01*
X0250648Y0189309D01*
X0251621Y0188906D01*
X0252665Y0188769D01*
X025371Y0188906D01*
X0254683Y0189309D01*
X0255518Y018995D01*
X0256159Y0190786D01*
X0256562Y0191759D01*
X02567Y0192803D01*
Y0194803D01*
X0256562Y0195847D01*
X0256159Y019682D01*
X0255518Y0197656D01*
X0254683Y0198297D01*
X025371Y01987D01*
X0252665Y0198838D01*
D02*
G37*
G36*
X0435Y0180171D02*
Y01765D01*
X0437349D01*
X0435977Y0178938D01*
X0436089Y0178787D01*
X0436227Y017869D01*
X0436391Y0178646D01*
X0436581Y0178656D01*
X0436796Y0178719D01*
X0437037Y0178835D01*
X0437303Y0179005D01*
X0437549Y0179193D01*
X0436986Y0179625D01*
X0435977Y0180043D01*
X0435Y0180171D01*
D02*
G37*
G36*
X0438764Y0177499D02*
X0438435Y0177104D01*
X0438227Y01768D01*
X0438067Y0176516D01*
X0438061Y01765D01*
X0439013D01*
X0438937Y0177083D01*
X0438764Y0177499D01*
D02*
G37*
G36*
X0434Y0180171D02*
X0433023Y0180043D01*
X0432014Y0179625D01*
X0431147Y017896D01*
X0430482Y0178093D01*
X0430063Y0177083D01*
X0429987Y01765D01*
X0434D01*
Y0180171D01*
D02*
G37*
G36*
X0439013Y01755D02*
X0437929D01*
X0437974Y0175389D01*
X0437911Y01755D01*
X0435D01*
Y0171829D01*
X0435977Y0171957D01*
X0436986Y0172375D01*
X0437853Y017304D01*
X0438518Y0173907D01*
X0438937Y0174917D01*
X0439013Y01755D01*
D02*
G37*
G36*
X0132Y0187185D02*
X0118D01*
Y0174185D01*
X0132D01*
Y0187185D01*
D02*
G37*
G36*
X0431118Y01755D02*
X0429987D01*
X0430063Y0174917D01*
X0430482Y0173907D01*
X0430511Y0173869D01*
X0430756Y0174166D01*
X0430938Y0174445D01*
X0431072Y0174703D01*
X0431156Y0174939D01*
X0431191Y0175153D01*
X0431176Y0175346D01*
X0431118Y01755D01*
D02*
G37*
G36*
X0434D02*
X0431164D01*
X0433772Y0172892D01*
X0433623Y0173006D01*
X0433452Y017307D01*
X0433259Y0173084D01*
X0433045Y017305D01*
X0432809Y0172966D01*
X0432551Y0172832D01*
X0432272Y0172649D01*
X0431971Y0172417D01*
X0431965Y0172412D01*
X0432014Y0172375D01*
X0433023Y0171957D01*
X0434Y0171829D01*
Y01755D01*
D02*
G37*
G36*
X0436469Y0170172D02*
X0432531D01*
X0431859Y0170083D01*
X0431233Y0169824D01*
X0430695Y0169411D01*
X0430282Y0168873D01*
X0430023Y0168247D01*
X0429935Y0167575D01*
Y0164425D01*
X0430023Y0163753D01*
X0430282Y0163127D01*
X0430695Y0162589D01*
X0431233Y0162176D01*
X0431859Y0161917D01*
X0432531Y0161828D01*
X0436469D01*
X0437141Y0161917D01*
X0437767Y0162176D01*
X0438305Y0162589D01*
X0438718Y0163127D01*
X0438977Y0163753D01*
X0439066Y0164425D01*
Y0167575D01*
X0438977Y0168247D01*
X0438718Y0168873D01*
X0438305Y0169411D01*
X0437767Y0169824D01*
X0437141Y0170083D01*
X0436469Y0170172D01*
D02*
G37*
G36*
X01255Y0167217D02*
X01245D01*
X0123226Y0167091D01*
X0122001Y0166719D01*
X0120871Y0166116D01*
X0119882Y0165304D01*
X0119069Y0164314D01*
X0118466Y0163184D01*
X0118094Y0161959D01*
X0117969Y0160685D01*
X0118094Y0159411D01*
X0118466Y0158186D01*
X0119069Y0157056D01*
X0119882Y0156067D01*
X0120871Y0155254D01*
X0122001Y0154651D01*
X0123226Y0154279D01*
X01245Y0154154D01*
X01255D01*
X0126774Y0154279D01*
X0127999Y0154651D01*
X0129129Y0155254D01*
X0130118Y0156067D01*
X0130931Y0157056D01*
X0131534Y0158186D01*
X0131906Y0159411D01*
X0132031Y0160685D01*
X0131906Y0161959D01*
X0131534Y0163184D01*
X0130931Y0164314D01*
X0130118Y0165304D01*
X0129129Y0166116D01*
X0127999Y0166719D01*
X0126774Y0167091D01*
X01255Y0167217D01*
D02*
G37*
G36*
X0306665Y0158803D02*
X0298665D01*
Y0148803D01*
X0306665D01*
Y0158803D01*
D02*
G37*
G36*
X0292665Y0158838D02*
X0291621Y01587D01*
X0290648Y0158297D01*
X0289812Y0157656D01*
X0289171Y015682D01*
X0288768Y0155847D01*
X0288631Y0154803D01*
Y0152803D01*
X0288768Y0151759D01*
X0289171Y0150786D01*
X0289812Y014995D01*
X0290648Y0149309D01*
X0291621Y0148906D01*
X0292665Y0148769D01*
X029371Y0148906D01*
X0294683Y0149309D01*
X0295518Y014995D01*
X0296159Y0150786D01*
X0296562Y0151759D01*
X02967Y0152803D01*
Y0154803D01*
X0296562Y0155847D01*
X0296159Y015682D01*
X0295518Y0157656D01*
X0294683Y0158297D01*
X029371Y01587D01*
X0292665Y0158838D01*
D02*
G37*
G36*
X0282665D02*
X0281621Y01587D01*
X0280648Y0158297D01*
X0279813Y0157656D01*
X0279171Y015682D01*
X0278768Y0155847D01*
X0278631Y0154803D01*
Y0152803D01*
X0278768Y0151759D01*
X0279171Y0150786D01*
X0279813Y014995D01*
X0280648Y0149309D01*
X0281621Y0148906D01*
X0282665Y0148769D01*
X028371Y0148906D01*
X0284683Y0149309D01*
X0285518Y014995D01*
X0286159Y0150786D01*
X0286562Y0151759D01*
X02867Y0152803D01*
Y0154803D01*
X0286562Y0155847D01*
X0286159Y015682D01*
X0285518Y0157656D01*
X0284683Y0158297D01*
X028371Y01587D01*
X0282665Y0158838D01*
D02*
G37*
G36*
X0272665D02*
X0271621Y01587D01*
X0270648Y0158297D01*
X0269812Y0157656D01*
X0269171Y015682D01*
X0268768Y0155847D01*
X0268631Y0154803D01*
Y0152803D01*
X0268768Y0151759D01*
X0269171Y0150786D01*
X0269812Y014995D01*
X0270648Y0149309D01*
X0271621Y0148906D01*
X0272665Y0148769D01*
X027371Y0148906D01*
X0274683Y0149309D01*
X0275518Y014995D01*
X0276159Y0150786D01*
X0276562Y0151759D01*
X02767Y0152803D01*
Y0154803D01*
X0276562Y0155847D01*
X0276159Y015682D01*
X0275518Y0157656D01*
X0274683Y0158297D01*
X027371Y01587D01*
X0272665Y0158838D01*
D02*
G37*
G36*
X0262665D02*
X0261621Y01587D01*
X0260648Y0158297D01*
X0259812Y0157656D01*
X0259171Y015682D01*
X0258768Y0155847D01*
X0258631Y0154803D01*
Y0152803D01*
X0258768Y0151759D01*
X0259171Y0150786D01*
X0259812Y014995D01*
X0260648Y0149309D01*
X0261621Y0148906D01*
X0262665Y0148769D01*
X026371Y0148906D01*
X0264683Y0149309D01*
X0265518Y014995D01*
X0266159Y0150786D01*
X0266562Y0151759D01*
X02667Y0152803D01*
Y0154803D01*
X0266562Y0155847D01*
X0266159Y015682D01*
X0265518Y0157656D01*
X0264683Y0158297D01*
X026371Y01587D01*
X0262665Y0158838D01*
D02*
G37*
G36*
X0252665D02*
X0251621Y01587D01*
X0250648Y0158297D01*
X0249813Y0157656D01*
X0249171Y015682D01*
X0248768Y0155847D01*
X0248631Y0154803D01*
Y0152803D01*
X0248768Y0151759D01*
X0249171Y0150786D01*
X0249813Y014995D01*
X0250648Y0149309D01*
X0251621Y0148906D01*
X0252665Y0148769D01*
X025371Y0148906D01*
X0254683Y0149309D01*
X0255518Y014995D01*
X0256159Y0150786D01*
X0256562Y0151759D01*
X02567Y0152803D01*
Y0154803D01*
X0256562Y0155847D01*
X0256159Y015682D01*
X0255518Y0157656D01*
X0254683Y0158297D01*
X025371Y01587D01*
X0252665Y0158838D01*
D02*
G37*
G36*
X0355343Y014782D02*
Y0146689D01*
X0355497Y0146631D01*
X0355689Y0146616D01*
X0355904Y0146651D01*
X035614Y0146735D01*
X0356397Y0146869D01*
X0356677Y0147051D01*
X0356978Y0147283D01*
X0356984Y0147288D01*
X0356935Y0147326D01*
X0355926Y0147744D01*
X0355343Y014782D01*
D02*
G37*
G36*
Y0146643D02*
Y0143807D01*
X0359014D01*
X0358885Y0144784D01*
X0358467Y0145793D01*
X0358437Y0145832D01*
X0358193Y0145535D01*
X035801Y0145256D01*
X0357877Y0144998D01*
X0357793Y0144762D01*
X0357758Y0144548D01*
X0357773Y0144355D01*
X0357837Y0144184D01*
X035795Y0144035D01*
X0355343Y0146643D01*
D02*
G37*
G36*
X0359014Y0142807D02*
X0355343D01*
Y0138794D01*
X0355926Y0138871D01*
X0356935Y0139289D01*
X0357802Y0139954D01*
X0358467Y0140821D01*
X0358885Y014183D01*
X0359014Y0142807D01*
D02*
G37*
G36*
X0354343D02*
X0350671D01*
X03508Y014183D01*
X0351218Y0140821D01*
X0351883Y0139954D01*
X035275Y0139289D01*
X0353759Y0138871D01*
X0354343Y0138794D01*
Y0142807D01*
D02*
G37*
G36*
X0366417Y0147873D02*
X0363268D01*
X0362596Y0147784D01*
X0361969Y0147525D01*
X0361431Y0147112D01*
X0361019Y0146574D01*
X0360759Y0145948D01*
X0360671Y0145276D01*
Y0141339D01*
X0360759Y0140666D01*
X0361019Y014004D01*
X0361431Y0139502D01*
X0361969Y013909D01*
X0362596Y013883D01*
X0363268Y0138742D01*
X0366417D01*
X036709Y013883D01*
X0367716Y013909D01*
X0368254Y0139502D01*
X0368666Y014004D01*
X0368926Y0140666D01*
X0369014Y0141339D01*
Y0145276D01*
X0368926Y0145948D01*
X0368666Y0146574D01*
X0368254Y0147112D01*
X0367716Y0147525D01*
X036709Y0147784D01*
X0366417Y0147873D01*
D02*
G37*
G36*
X0443297Y0139386D02*
X0441743D01*
X0440218Y0139083D01*
X0438783Y0138488D01*
X043749Y0137624D01*
X0436391Y0136525D01*
X0435528Y0135233D01*
X0434933Y0133797D01*
X043463Y0132273D01*
Y0130719D01*
X0434933Y0129195D01*
X0435528Y0127759D01*
X0436391Y0126467D01*
X043749Y0125368D01*
X0438783Y0124504D01*
X0440218Y0123909D01*
X0441743Y0123606D01*
X0443297D01*
X0444821Y0123909D01*
X0446257Y0124504D01*
X0447549Y0125368D01*
X0448648Y0126467D01*
X0449511Y0127759D01*
X0450106Y0129195D01*
X045041Y0130719D01*
Y0132273D01*
X0450106Y0133797D01*
X0449511Y0135233D01*
X0448648Y0136525D01*
X0447549Y0137624D01*
X0446257Y0138488D01*
X0444821Y0139083D01*
X0443297Y0139386D01*
D02*
G37*
G36*
X0112588D02*
X0111034D01*
X010951Y0139083D01*
X0108074Y0138488D01*
X0106782Y0137624D01*
X0105683Y0136525D01*
X0104819Y0135233D01*
X0104225Y0133797D01*
X0103921Y0132273D01*
Y0130719D01*
X0104225Y0129195D01*
X0104819Y0127759D01*
X0105683Y0126467D01*
X0106782Y0125368D01*
X0108074Y0124504D01*
X010951Y0123909D01*
X0111034Y0123606D01*
X0112588D01*
X0114112Y0123909D01*
X0115548Y0124504D01*
X0116841Y0125368D01*
X0117939Y0126467D01*
X0118803Y0127759D01*
X0119398Y0129195D01*
X0119701Y0130719D01*
Y0132273D01*
X0119398Y0133797D01*
X0118803Y0135233D01*
X0117939Y0136525D01*
X0116841Y0137624D01*
X0115548Y0138488D01*
X0114112Y0139083D01*
X0112588Y0139386D01*
D02*
G37*
%LPD*%
G36*
X0291215Y02426D02*
X0290564Y0241859D01*
X0290299Y024151D01*
X0290075Y0241175D01*
X0289892Y0240855D01*
X028975Y0240549D01*
X0289648Y0240257D01*
X0289587Y0239979D01*
X0289567Y0239716D01*
X0288386D01*
X0288366Y0239979D01*
X0288304Y0240257D01*
X0288203Y0240549D01*
X028806Y0240855D01*
X0287877Y0241175D01*
X0287653Y024151D01*
X0287389Y0241859D01*
X0286738Y02426D01*
X0286351Y0242991D01*
X0291601D01*
X0291215Y02426D01*
D02*
G37*
G36*
X0266207Y0210651D02*
X0266392Y0210581D01*
X0266645Y021052D01*
X0266967Y0210467D01*
X0267818Y0210385D01*
X0269608Y0210324D01*
X0270342Y021032D01*
Y0208351D01*
X0269608Y0208347D01*
X0266645Y0208151D01*
X0266392Y020809D01*
X0266207Y020802D01*
X0266091Y0207943D01*
Y0210729D01*
X0266207Y0210651D01*
D02*
G37*
D94*
X0417839Y0266437D02*
X0420079Y0264198D01*
X0414134Y0252319D02*
X0420079Y0258264D01*
Y0264198D01*
X041752Y0266437D02*
X0417839D01*
X0417913Y0294587D02*
X04245Y0288D01*
Y02335D02*
Y0288D01*
X0430386Y0216299D02*
X0437861D01*
X04385Y0216937D01*
X0419Y0227685D02*
X0430386Y0216299D01*
X0433189Y0224811D02*
X04385D01*
X04245Y02335D02*
X0433189Y0224811D01*
X0334Y0244185D02*
X03365Y0246685D01*
X0334Y0231185D02*
Y0244185D01*
Y0231185D02*
X03375Y0227685D01*
X0419D01*
X0288976Y0239209D02*
X0293Y0235185D01*
X0302D02*
X0319134Y0252319D01*
X0293Y0235185D02*
X0302D01*
X0319134Y0252319D02*
X0414134D01*
X0288976Y0239209D02*
Y0245669D01*
D95*
X0446Y0186185D02*
Y0225185D01*
X04385Y0232685D02*
X0446Y0225185D01*
X0266929Y0302756D02*
Y0331213D01*
X0267Y0331283D01*
X04385Y0256307D02*
X04495Y0245307D01*
Y0158685D02*
Y0245307D01*
X02647Y0209336D02*
X0375349D01*
X0384Y0200685D02*
Y0200685D01*
X0375349Y0209336D02*
X0384Y0200685D01*
X0389Y0192685D02*
Y0207185D01*
Y0192685D02*
X04095Y0172185D01*
Y0164685D02*
Y0172185D01*
X0375827Y0164685D02*
X04095D01*
X0422791D01*
X04345Y0176D02*
X0435815D01*
X0446Y0186185D01*
X04285Y0137685D02*
X04495Y0158685D01*
X0394Y0137685D02*
X04285D01*
X0422791Y0164685D02*
X0434106Y0176D01*
X04345D01*
X0354842Y0143307D02*
Y0143701D01*
X0375827Y0164685D01*
D96*
X0215Y0253185D02*
X0223657D01*
X0264173Y0293701D02*
X0302516D01*
X0223657Y0253185D02*
X0264173Y0293701D01*
X0302516D02*
X0313Y0304185D01*
X0435177Y025963D02*
X04385Y0256307D01*
X0432417Y025963D02*
X0435177D01*
X04285Y0263547D02*
X0432417Y025963D01*
X02605Y0213536D02*
Y0276406D01*
Y0213536D02*
X02647Y0209336D01*
X0313Y0304185D02*
X0415D01*
X04285Y0263547D02*
Y0290685D01*
X0415Y0304185D02*
X04285Y0290685D01*
D97*
X0377Y0177685D02*
X0393D01*
X03995Y0171185D01*
X03265Y0127185D02*
X0377Y0177685D01*
X0207676Y0142043D02*
X0222534Y0127185D01*
X0108252Y0157433D02*
X0123642Y0142043D01*
X0207676D01*
X0222534Y0127185D02*
X03265D01*
X0108252Y0291918D02*
X0112412Y0296079D01*
X0108252Y0157433D02*
Y0291918D01*
X0115354Y0298976D02*
X0115748D01*
X0112457Y0296079D02*
X0115354Y0298976D01*
X0112412Y0296079D02*
X0112457D01*
D100*
X0381606Y0268468D02*
D03*
X0372819Y0268957D02*
D03*
X0386Y0272862D02*
D03*
X0377213D02*
D03*
X0368425D02*
D03*
X0381606Y0277256D02*
D03*
X0372819D02*
D03*
X0386Y028165D02*
D03*
X0377213D02*
D03*
X0368425D02*
D03*
X0381606Y0286043D02*
D03*
X0372819D02*
D03*
X041752Y0266437D02*
D03*
X0417913Y0294587D02*
D03*
X0266929Y0302756D02*
D03*
X03365Y0246685D02*
D03*
X0384Y0200685D02*
D03*
X0389Y0207185D02*
D03*
X03995Y0171185D02*
D03*
X0394Y0137685D02*
D03*
D101*
X0125Y0160685D02*
D03*
D102*
Y0180685D02*
D03*
D103*
X04385Y0209063D02*
D03*
Y0216937D02*
D03*
Y0224811D02*
D03*
Y0232685D02*
D03*
Y0240559D02*
D03*
Y0248433D02*
D03*
X0438583Y0273228D02*
D03*
Y0281102D02*
D03*
D104*
X04385Y0256307D02*
D03*
X0438583Y0265354D02*
D03*
D105*
X0269876Y0245069D02*
D03*
X0288676Y0270469D02*
D03*
X0269476Y0270169D02*
D03*
X0288976Y0245669D02*
D03*
D106*
X01785Y0189685D02*
D03*
X02035Y0179685D02*
D03*
X01535D02*
D03*
X02035Y0131811D02*
D03*
X01535D02*
D03*
D107*
X0364843Y0143307D02*
D03*
D108*
X0354842D02*
D03*
D109*
X04385Y03085D02*
D03*
D110*
Y02985D02*
D03*
D111*
X04345Y0176D02*
D03*
X0115748Y0288976D02*
D03*
D112*
X04345Y0166D02*
D03*
X0115748Y0298976D02*
D03*
D113*
X0252665Y0193803D02*
D03*
X0262665D02*
D03*
X0272665D02*
D03*
X0282665D02*
D03*
X0292665D02*
D03*
X0302665D02*
D03*
X0252665Y0153803D02*
D03*
X0262665D02*
D03*
X0272665D02*
D03*
X0282665D02*
D03*
X0292665D02*
D03*
D114*
X0302665D02*
D03*
D115*
X02647Y0209336D02*
D03*
X02605Y0276406D02*
D03*
X0215Y0253185D02*
D03*
X0267Y0331283D02*
D03*
D116*
X044252Y032441D02*
D03*
Y0131496D02*
D03*
X0111811D02*
D03*
Y032441D02*
D03*
M02*
