G04*
G04 #@! TF.GenerationSoftware,Altium Limited,Altium Designer,21.0.8 (223)*
G04*
G04 Layer_Color=8388736*
%FSTAX25Y25*%
%MOIN*%
G70*
G04*
G04 #@! TF.SameCoordinates,ACC495E8-7B1D-45BE-8A89-05A210FF911E*
G04*
G04*
G04 #@! TF.FilePolarity,Negative*
G04*
G01*
G75*
%ADD48R,0.06036X0.06036*%
%ADD49R,0.08674X0.04343*%
%ADD50R,0.04343X0.08674*%
%ADD51R,0.06902X0.10052*%
%ADD52R,0.03162X0.04737*%
%ADD53R,0.10642X0.10642*%
G04:AMPARAMS|DCode=54|XSize=295.4mil|YSize=165.48mil|CornerRadius=0mil|HoleSize=0mil|Usage=FLASHONLY|Rotation=180.000|XOffset=0mil|YOffset=0mil|HoleType=Round|Shape=Octagon|*
%AMOCTAGOND54*
4,1,8,-0.14770,0.04137,-0.14770,-0.04137,-0.10633,-0.08274,0.10633,-0.08274,0.14770,-0.04137,0.14770,0.04137,0.10633,0.08274,-0.10633,0.08274,-0.14770,0.04137,0.0*
%
%ADD54OCTAGOND54*%

%ADD55R,0.16942X0.08674*%
%ADD56R,0.05524X0.06706*%
%ADD57R,0.06506X0.05718*%
%ADD58R,0.05524X0.05918*%
%ADD59R,0.05718X0.06506*%
%ADD60R,0.05600X0.05600*%
%ADD61R,0.07099X0.03950*%
%ADD62R,0.08674X0.16942*%
%ADD63R,0.24422X0.40170*%
%ADD64R,0.11627X0.05013*%
%ADD65R,0.05131X0.09265*%
%ADD66R,0.05131X0.09265*%
%ADD67R,0.14580X0.09265*%
%ADD68R,0.05524X0.06312*%
%ADD69O,0.09658X0.07099*%
%ADD70R,0.04934X0.06115*%
%ADD71R,0.04343X0.04540*%
%ADD72R,0.04343X0.04540*%
%ADD73R,0.06115X0.04934*%
%ADD74R,0.04737X0.03162*%
%ADD75R,0.05524X0.04147*%
%ADD76R,0.06312X0.05524*%
%ADD77C,0.03556*%
%ADD78O,0.12800X0.11800*%
%ADD79R,0.12800X0.11800*%
%ADD80C,0.06312*%
%ADD81R,0.06312X0.06312*%
%ADD82C,0.08300*%
%ADD83O,0.10642X0.12611*%
G04:AMPARAMS|DCode=84|XSize=78.87mil|YSize=70.99mil|CornerRadius=19.75mil|HoleSize=0mil|Usage=FLASHONLY|Rotation=270.000|XOffset=0mil|YOffset=0mil|HoleType=Round|Shape=RoundedRectangle|*
%AMROUNDEDRECTD84*
21,1,0.07887,0.03150,0,0,270.0*
21,1,0.03937,0.07099,0,0,270.0*
1,1,0.03950,-0.01575,-0.01968*
1,1,0.03950,-0.01575,0.01968*
1,1,0.03950,0.01575,0.01968*
1,1,0.03950,0.01575,-0.01968*
%
%ADD84ROUNDEDRECTD84*%
%ADD85O,0.07099X0.07887*%
%ADD86O,0.08300X0.07000*%
G04:AMPARAMS|DCode=87|XSize=70mil|YSize=83mil|CornerRadius=19.5mil|HoleSize=0mil|Usage=FLASHONLY|Rotation=90.000|XOffset=0mil|YOffset=0mil|HoleType=Round|Shape=RoundedRectangle|*
%AMROUNDEDRECTD87*
21,1,0.07000,0.04400,0,0,90.0*
21,1,0.03100,0.08300,0,0,90.0*
1,1,0.03900,0.02200,0.01550*
1,1,0.03900,0.02200,-0.01550*
1,1,0.03900,-0.02200,-0.01550*
1,1,0.03900,-0.02200,0.01550*
%
%ADD87ROUNDEDRECTD87*%
%ADD88O,0.07887X0.07099*%
G04:AMPARAMS|DCode=89|XSize=78.87mil|YSize=70.99mil|CornerRadius=19.75mil|HoleSize=0mil|Usage=FLASHONLY|Rotation=180.000|XOffset=0mil|YOffset=0mil|HoleType=Round|Shape=RoundedRectangle|*
%AMROUNDEDRECTD89*
21,1,0.07887,0.03150,0,0,180.0*
21,1,0.03937,0.07099,0,0,180.0*
1,1,0.03950,-0.01968,0.01575*
1,1,0.03950,0.01968,0.01575*
1,1,0.03950,0.01968,-0.01575*
1,1,0.03950,-0.01968,-0.01575*
%
%ADD89ROUNDEDRECTD89*%
%ADD90O,0.06800X0.08800*%
%ADD91R,0.06800X0.08800*%
%ADD92C,0.04737*%
%ADD93C,0.14580*%
D48*
X0386Y0268468D02*
D03*
X0377213D02*
D03*
X0368425D02*
D03*
X0386Y0277256D02*
D03*
X0377213D02*
D03*
X0368425D02*
D03*
X0386Y0286043D02*
D03*
X0377213D02*
D03*
X0368425D02*
D03*
D49*
X0410677Y0306752D02*
D03*
Y0301752D02*
D03*
Y0296752D02*
D03*
Y0291752D02*
D03*
Y0286752D02*
D03*
Y0281752D02*
D03*
Y0276752D02*
D03*
Y0271752D02*
D03*
Y0266752D02*
D03*
Y0261752D02*
D03*
Y0256752D02*
D03*
Y0251752D02*
D03*
Y0246752D02*
D03*
Y0241752D02*
D03*
X0343748D02*
D03*
Y0246752D02*
D03*
Y0251752D02*
D03*
Y0256752D02*
D03*
Y0261752D02*
D03*
Y0266752D02*
D03*
Y0271752D02*
D03*
Y0276752D02*
D03*
Y0281752D02*
D03*
Y0286752D02*
D03*
Y0291752D02*
D03*
Y0296752D02*
D03*
Y0301752D02*
D03*
Y0306752D02*
D03*
D50*
X0399713Y0237815D02*
D03*
X0394713D02*
D03*
X0389713D02*
D03*
X0384713D02*
D03*
X0379713D02*
D03*
X0374713D02*
D03*
X0369713D02*
D03*
X0364713D02*
D03*
X0359713D02*
D03*
X0354713D02*
D03*
D51*
X0164Y0227453D02*
D03*
Y0210917D02*
D03*
D52*
X01815Y0210748D02*
D03*
X017776Y0218622D02*
D03*
X018524D02*
D03*
D53*
X02525Y0274468D02*
D03*
Y0259902D02*
D03*
D54*
X01295Y0242685D02*
D03*
Y0267685D02*
D03*
D55*
X0166874Y0253185D02*
D03*
X0201126D02*
D03*
D56*
X0153Y0268862D02*
D03*
Y0253508D02*
D03*
D57*
X031Y0318945D02*
D03*
Y0326425D02*
D03*
X0197Y0228426D02*
D03*
Y0220945D02*
D03*
X0399441Y0166236D02*
D03*
Y0158756D02*
D03*
X04245Y0198425D02*
D03*
Y0190945D02*
D03*
D58*
X0302161Y0308685D02*
D03*
X0309839D02*
D03*
D59*
X0288241Y031D02*
D03*
X028076D02*
D03*
X0334241Y0141185D02*
D03*
X032676D02*
D03*
X0408241Y0200685D02*
D03*
X040076D02*
D03*
X038774Y0151685D02*
D03*
X0380259D02*
D03*
D60*
X0280563Y0303D02*
D03*
X0288437D02*
D03*
X0400563Y0208185D02*
D03*
X0408437D02*
D03*
D61*
X0294882Y0288976D02*
D03*
X0267323D02*
D03*
X0389941Y0219685D02*
D03*
X04175D02*
D03*
D62*
X01525Y0319311D02*
D03*
Y0285059D02*
D03*
D63*
X0241193Y0304185D02*
D03*
D64*
X01809Y0290799D02*
D03*
Y0297492D02*
D03*
Y0304185D02*
D03*
Y0310878D02*
D03*
Y0317571D02*
D03*
D65*
X0222945Y024148D02*
D03*
X0241055D02*
D03*
D66*
X0232D02*
D03*
D67*
X0232Y026589D02*
D03*
D68*
X0247723Y0231698D02*
D03*
X0240243D02*
D03*
X0228277Y0276172D02*
D03*
X0235757D02*
D03*
D69*
X0240732Y0207185D02*
D03*
Y0217185D02*
D03*
X0207268D02*
D03*
Y0207185D02*
D03*
D70*
X0277339Y0220685D02*
D03*
X0269661D02*
D03*
X0291339D02*
D03*
X0283661D02*
D03*
X0305339D02*
D03*
X0297661D02*
D03*
X0319339D02*
D03*
X0311661D02*
D03*
X0341661Y0186685D02*
D03*
X0349339D02*
D03*
X0341661Y0179185D02*
D03*
X0349339D02*
D03*
X0341661Y0171685D02*
D03*
X0349339D02*
D03*
X03415Y0164185D02*
D03*
X0349177D02*
D03*
D71*
X02735Y0204559D02*
D03*
X027724Y0213811D02*
D03*
X0288Y0204559D02*
D03*
X029174Y0213811D02*
D03*
X03015Y0204559D02*
D03*
X030524Y0213811D02*
D03*
X03155Y0204185D02*
D03*
X031924Y0213437D02*
D03*
D72*
X026976Y0213811D02*
D03*
X028426D02*
D03*
X029776D02*
D03*
X031176Y0213437D02*
D03*
D73*
X03265Y0205346D02*
D03*
Y0213024D02*
D03*
X0334Y0205346D02*
D03*
Y0213024D02*
D03*
X04225Y0314339D02*
D03*
Y0306661D02*
D03*
X03185Y0277685D02*
D03*
Y0270008D02*
D03*
D74*
X0408504Y0162496D02*
D03*
X0416378Y0166236D02*
D03*
Y0158756D02*
D03*
D75*
X0432921Y0142945D02*
D03*
X04329Y0150385D02*
D03*
X0423079Y0146685D02*
D03*
X0389421Y0137685D02*
D03*
X03796Y0133985D02*
D03*
X0379579Y0141425D02*
D03*
D76*
X0325987Y0301743D02*
D03*
Y0309223D02*
D03*
X0318487Y0301743D02*
D03*
Y0309223D02*
D03*
D77*
X0381606Y0268468D02*
D03*
X0372819Y0268957D02*
D03*
X0386Y0272862D02*
D03*
X0377213D02*
D03*
X0368425D02*
D03*
X0381606Y0277256D02*
D03*
X0372819D02*
D03*
X0386Y028165D02*
D03*
X0377213D02*
D03*
X0368425D02*
D03*
X0381606Y0286043D02*
D03*
X0372819D02*
D03*
X041752Y0266437D02*
D03*
X0417913Y0294587D02*
D03*
X0266929Y0302756D02*
D03*
X03365Y0246685D02*
D03*
X0384Y0200685D02*
D03*
X0389Y0207185D02*
D03*
X03995Y0171185D02*
D03*
X0394Y0137685D02*
D03*
D78*
X0125Y0160685D02*
D03*
D79*
Y0180685D02*
D03*
D80*
X04385Y0209063D02*
D03*
Y0216937D02*
D03*
Y0224811D02*
D03*
Y0232685D02*
D03*
Y0240559D02*
D03*
Y0248433D02*
D03*
X0438583Y0273228D02*
D03*
Y0281102D02*
D03*
D81*
X04385Y0256307D02*
D03*
X0438583Y0265354D02*
D03*
D82*
X0269876Y0245069D02*
D03*
X0288676Y0270469D02*
D03*
X0269476Y0270169D02*
D03*
X0288976Y0245669D02*
D03*
D83*
X01785Y0189685D02*
D03*
X02035Y0179685D02*
D03*
X01535D02*
D03*
X02035Y0131811D02*
D03*
X01535D02*
D03*
D84*
X0364843Y0143307D02*
D03*
D85*
X0354842D02*
D03*
D86*
X04385Y03085D02*
D03*
D87*
Y02985D02*
D03*
D88*
X04345Y0176D02*
D03*
X0115748Y0288976D02*
D03*
D89*
X04345Y0166D02*
D03*
X0115748Y0298976D02*
D03*
D90*
X0252665Y0193803D02*
D03*
X0262665D02*
D03*
X0272665D02*
D03*
X0282665D02*
D03*
X0292665D02*
D03*
X0302665D02*
D03*
X0252665Y0153803D02*
D03*
X0262665D02*
D03*
X0272665D02*
D03*
X0282665D02*
D03*
X0292665D02*
D03*
D91*
X0302665D02*
D03*
D92*
X02647Y0209336D02*
D03*
X02605Y0276406D02*
D03*
X0215Y0253185D02*
D03*
X0267Y0331283D02*
D03*
D93*
X044252Y032441D02*
D03*
Y0131496D02*
D03*
X0111811D02*
D03*
Y032441D02*
D03*
M02*
