G04*
G04 #@! TF.GenerationSoftware,Altium Limited,Altium Designer,21.0.8 (223)*
G04*
G04 Layer_Color=2752767*
%FSTAX25Y25*%
%MOIN*%
G70*
G04*
G04 #@! TF.SameCoordinates,ACC495E8-7B1D-45BE-8A89-05A210FF911E*
G04*
G04*
G04 #@! TF.FilePolarity,Positive*
G04*
G01*
G75*
%ADD121C,0.00200*%
%ADD122C,0.00267*%
%ADD123C,0.00133*%
D121*
X0380806Y0267669D02*
Y0269268D01*
X0382406D01*
Y0267669D01*
X0380806D01*
X0372019Y0268157D02*
Y0269757D01*
X0373619D01*
Y0268157D01*
X0372019D01*
X03852Y0272062D02*
Y0273662D01*
X03868D01*
Y0272062D01*
X03852D01*
X0376413D02*
Y0273662D01*
X0378013D01*
Y0272062D01*
X0376413D01*
X0367625D02*
Y0273662D01*
X0369225D01*
Y0272062D01*
X0367625D01*
X0380806Y0276456D02*
Y0278056D01*
X0382406D01*
Y0276456D01*
X0380806D01*
X0372019D02*
Y0278056D01*
X0373619D01*
Y0276456D01*
X0372019D01*
X03852Y028085D02*
Y028245D01*
X03868D01*
Y028085D01*
X03852D01*
X0376413D02*
Y028245D01*
X0378013D01*
Y028085D01*
X0376413D01*
X0367625D02*
Y028245D01*
X0369225D01*
Y028085D01*
X0367625D01*
X0380806Y0285243D02*
Y0286843D01*
X0382406D01*
Y0285243D01*
X0380806D01*
X0372019D02*
Y0286843D01*
X0373619D01*
Y0285243D01*
X0372019D01*
X04385Y0208263D02*
X04377Y0209863D01*
X04393D01*
X04385Y0208263D01*
Y0216137D02*
X04377Y0217737D01*
X04393D01*
X04385Y0216137D01*
Y0224011D02*
X04377Y0225611D01*
X04393D01*
X04385Y0224011D01*
Y0231885D02*
X04377Y0233485D01*
X04393D01*
X04385Y0231885D01*
Y0239759D02*
X04377Y0241359D01*
X04393D01*
X04385Y0239759D01*
Y0247633D02*
X04377Y0249233D01*
X04393D01*
X04385Y0247633D01*
Y0255507D02*
X04377Y0257107D01*
X04393D01*
X04385Y0255507D01*
X0269876Y0244269D02*
X0270276Y0244669D01*
X0270676D01*
X0270276Y0245069D01*
X0270676Y0245469D01*
X0270276D01*
X0269876Y0245869D01*
X0269476Y0245469D01*
X0269076D01*
X0269476Y0245069D01*
X0269076Y0244669D01*
X0269476D01*
X0269876Y0244269D01*
X0288676Y0269669D02*
X0289076Y0270069D01*
X0289476D01*
X0289076Y0270469D01*
X0289476Y0270869D01*
X0289076D01*
X0288676Y0271269D01*
X0288276Y0270869D01*
X0287876D01*
X0288276Y0270469D01*
X0287876Y0270069D01*
X0288276D01*
X0288676Y0269669D01*
X0269476Y0269369D02*
X0269876Y0269769D01*
X0270276D01*
X0269876Y0270169D01*
X0270276Y0270569D01*
X0269876D01*
X0269476Y0270969D01*
X0269076Y0270569D01*
X0268676D01*
X0269076Y0270169D01*
X0268676Y0269769D01*
X0269076D01*
X0269476Y0269369D01*
X0288976Y0244869D02*
X0289376Y0245269D01*
X0289776D01*
X0289376Y0245669D01*
X0289776Y0246069D01*
X0289376D01*
X0288976Y0246469D01*
X0288576Y0246069D01*
X0288176D01*
X0288576Y0245669D01*
X0288176Y0245269D01*
X0288576D01*
X0288976Y0244869D01*
X01777Y0188885D02*
X01781Y0189685D01*
X01777Y0190485D01*
X01785Y0190085D01*
X01793Y0190485D01*
X01789Y0189685D01*
X01793Y0188885D01*
X01785Y0189285D01*
X01777Y0188885D01*
X02027Y0178885D02*
X02031Y0179685D01*
X02027Y0180485D01*
X02035Y0180085D01*
X02043Y0180485D01*
X02039Y0179685D01*
X02043Y0178885D01*
X02035Y0179285D01*
X02027Y0178885D01*
X01527D02*
X01531Y0179685D01*
X01527Y0180485D01*
X01535Y0180085D01*
X01543Y0180485D01*
X01539Y0179685D01*
X01543Y0178885D01*
X01535Y0179285D01*
X01527Y0178885D01*
X02027Y0131011D02*
X02031Y0131811D01*
X02027Y0132611D01*
X02035Y0132211D01*
X02043Y0132611D01*
X02039Y0131811D01*
X02043Y0131011D01*
X02035Y0131411D01*
X02027Y0131011D01*
X01527D02*
X01531Y0131811D01*
X01527Y0132611D01*
X01535Y0132211D01*
X01543Y0132611D01*
X01539Y0131811D01*
X01543Y0131011D01*
X01535Y0131411D01*
X01527Y0131011D01*
X0364442Y0142907D02*
Y0142507D01*
X0365243D01*
Y0142907D01*
X0365642D01*
Y0143707D01*
X0365243D01*
Y0144107D01*
X0364442D01*
Y0143707D01*
X0364042D01*
Y0142907D01*
X0364442D01*
X0354443D02*
Y0142507D01*
X0355242D01*
Y0142907D01*
X0355643D01*
Y0143707D01*
X0355242D01*
Y0144107D01*
X0354443D01*
Y0143707D01*
X0354043D01*
Y0142907D01*
X0354443D01*
X0438583Y0264554D02*
X0437783Y0266154D01*
X0439383D01*
X0438583Y0264554D01*
Y0272428D02*
X0437783Y0274028D01*
X0439383D01*
X0438583Y0272428D01*
Y0280302D02*
X0437783Y0281902D01*
X0439383D01*
X0438583Y0280302D01*
X04377Y03077D02*
X04381D01*
X04385Y03081D01*
X04389Y03077D01*
X04393D01*
Y03081D01*
X04389Y03085D01*
X04393Y03089D01*
Y03093D01*
X04389D01*
X04385Y03089D01*
X04381Y03093D01*
X04377D01*
Y03089D01*
X04381Y03085D01*
X04377Y03081D01*
Y03077D01*
Y02977D02*
X04381D01*
X04385Y02981D01*
X04389Y02977D01*
X04393D01*
Y02981D01*
X04389Y02985D01*
X04393Y02989D01*
Y02993D01*
X04389D01*
X04385Y02989D01*
X04381Y02993D01*
X04377D01*
Y02989D01*
X04381Y02985D01*
X04377Y02981D01*
Y02977D01*
X04341Y01756D02*
Y01752D01*
X04349D01*
Y01756D01*
X04353D01*
Y01764D01*
X04349D01*
Y01768D01*
X04341D01*
Y01764D01*
X04337D01*
Y01756D01*
X04341D01*
Y01656D02*
Y01652D01*
X04349D01*
Y01656D01*
X04353D01*
Y01664D01*
X04349D01*
Y01668D01*
X04341D01*
Y01664D01*
X04337D01*
Y01656D01*
X04341D01*
X0115348Y0298576D02*
Y0298176D01*
X0116148D01*
Y0298576D01*
X0116548D01*
Y0299376D01*
X0116148D01*
Y0299776D01*
X0115348D01*
Y0299376D01*
X0114948D01*
Y0298576D01*
X0115348D01*
Y0288576D02*
Y0288176D01*
X0116148D01*
Y0288576D01*
X0116548D01*
Y0289376D01*
X0116148D01*
Y0289776D01*
X0115348D01*
Y0289376D01*
X0114948D01*
Y0288576D01*
X0115348D01*
X0252665Y0193003D02*
X0253065Y0193403D01*
X0253465D01*
X0253065Y0193803D01*
X0253465Y0194203D01*
X0253065D01*
X0252665Y0194603D01*
X0252265Y0194203D01*
X0251865D01*
X0252265Y0193803D01*
X0251865Y0193403D01*
X0252265D01*
X0252665Y0193003D01*
X0262665D02*
X0263065Y0193403D01*
X0263465D01*
X0263065Y0193803D01*
X0263465Y0194203D01*
X0263065D01*
X0262665Y0194603D01*
X0262265Y0194203D01*
X0261865D01*
X0262265Y0193803D01*
X0261865Y0193403D01*
X0262265D01*
X0262665Y0193003D01*
X0272665D02*
X0273065Y0193403D01*
X0273465D01*
X0273065Y0193803D01*
X0273465Y0194203D01*
X0273065D01*
X0272665Y0194603D01*
X0272265Y0194203D01*
X0271865D01*
X0272265Y0193803D01*
X0271865Y0193403D01*
X0272265D01*
X0272665Y0193003D01*
X0282665D02*
X0283065Y0193403D01*
X0283465D01*
X0283065Y0193803D01*
X0283465Y0194203D01*
X0283065D01*
X0282665Y0194603D01*
X0282265Y0194203D01*
X0281865D01*
X0282265Y0193803D01*
X0281865Y0193403D01*
X0282265D01*
X0282665Y0193003D01*
X0292665D02*
X0293065Y0193403D01*
X0293465D01*
X0293065Y0193803D01*
X0293465Y0194203D01*
X0293065D01*
X0292665Y0194603D01*
X0292265Y0194203D01*
X0291865D01*
X0292265Y0193803D01*
X0291865Y0193403D01*
X0292265D01*
X0292665Y0193003D01*
X0302665D02*
X0303065Y0193403D01*
X0303465D01*
X0303065Y0193803D01*
X0303465Y0194203D01*
X0303065D01*
X0302665Y0194603D01*
X0302265Y0194203D01*
X0301865D01*
X0302265Y0193803D01*
X0301865Y0193403D01*
X0302265D01*
X0302665Y0193003D01*
X0252665Y0153003D02*
X0253065Y0153403D01*
X0253465D01*
X0253065Y0153803D01*
X0253465Y0154203D01*
X0253065D01*
X0252665Y0154603D01*
X0252265Y0154203D01*
X0251865D01*
X0252265Y0153803D01*
X0251865Y0153403D01*
X0252265D01*
X0252665Y0153003D01*
X0262665D02*
X0263065Y0153403D01*
X0263465D01*
X0263065Y0153803D01*
X0263465Y0154203D01*
X0263065D01*
X0262665Y0154603D01*
X0262265Y0154203D01*
X0261865D01*
X0262265Y0153803D01*
X0261865Y0153403D01*
X0262265D01*
X0262665Y0153003D01*
X0272665D02*
X0273065Y0153403D01*
X0273465D01*
X0273065Y0153803D01*
X0273465Y0154203D01*
X0273065D01*
X0272665Y0154603D01*
X0272265Y0154203D01*
X0271865D01*
X0272265Y0153803D01*
X0271865Y0153403D01*
X0272265D01*
X0272665Y0153003D01*
X0282665D02*
X0283065Y0153403D01*
X0283465D01*
X0283065Y0153803D01*
X0283465Y0154203D01*
X0283065D01*
X0282665Y0154603D01*
X0282265Y0154203D01*
X0281865D01*
X0282265Y0153803D01*
X0281865Y0153403D01*
X0282265D01*
X0282665Y0153003D01*
X0292665D02*
X0293065Y0153403D01*
X0293465D01*
X0293065Y0153803D01*
X0293465Y0154203D01*
X0293065D01*
X0292665Y0154603D01*
X0292265Y0154203D01*
X0291865D01*
X0292265Y0153803D01*
X0291865Y0153403D01*
X0292265D01*
X0292665Y0153003D01*
X0302665D02*
X0303065Y0153403D01*
X0303465D01*
X0303065Y0153803D01*
X0303465Y0154203D01*
X0303065D01*
X0302665Y0154603D01*
X0302265Y0154203D01*
X0301865D01*
X0302265Y0153803D01*
X0301865Y0153403D01*
X0302265D01*
X0302665Y0153003D01*
X041672Y0265637D02*
Y0267237D01*
X041832D01*
Y0265637D01*
X041672D01*
X0417113Y0293787D02*
Y0295387D01*
X0418713D01*
Y0293787D01*
X0417113D01*
X0266129Y0301956D02*
Y0303556D01*
X0267729D01*
Y0301956D01*
X0266129D01*
X02639Y0209336D02*
X02647Y0210136D01*
X02655Y0209336D01*
X02647Y0208536D01*
X02639Y0209336D01*
X02597Y0276406D02*
X02605Y0277205D01*
X02613Y0276406D01*
X02605Y0275606D01*
X02597Y0276406D01*
X02142Y0252385D02*
Y0253985D01*
X02158D01*
Y0252385D01*
X02142D01*
X02146Y0252785D02*
Y0253585D01*
X02154D01*
Y0252785D01*
X02146D01*
X02662Y0331283D02*
X0267Y0332084D01*
X02678Y0331283D01*
X0267Y0330484D01*
X02662Y0331283D01*
X03357Y0245885D02*
Y0247485D01*
X03373D01*
Y0245885D01*
X03357D01*
X03832Y0199885D02*
Y0201485D01*
X03848D01*
Y0199885D01*
X03832D01*
X03882Y0206385D02*
Y0207985D01*
X03898D01*
Y0206385D01*
X03882D01*
X03987Y0170385D02*
Y0171985D01*
X04003D01*
Y0170385D01*
X03987D01*
X03932Y0136885D02*
Y0138485D01*
X03948D01*
Y0136885D01*
X03932D01*
D122*
X01258Y0160685D02*
G03*
X01258Y0160685I-00008J0D01*
G01*
Y0180685D02*
G03*
X01258Y0180685I-00008J0D01*
G01*
X044332Y032441D02*
G03*
X044332Y032441I-00008J0D01*
G01*
Y0131496D02*
G03*
X044332Y0131496I-00008J0D01*
G01*
X0112611D02*
G03*
X0112611Y0131496I-00008J0D01*
G01*
Y032441D02*
G03*
X0112611Y032441I-00008J0D01*
G01*
D123*
X044292D02*
G03*
X044292Y032441I-00004J0D01*
G01*
Y0131496D02*
G03*
X044292Y0131496I-00004J0D01*
G01*
X0112211D02*
G03*
X0112211Y0131496I-00004J0D01*
G01*
Y032441D02*
G03*
X0112211Y032441I-00004J0D01*
G01*
M02*
