G04*
G04 #@! TF.GenerationSoftware,Altium Limited,Altium Designer,21.0.8 (223)*
G04*
G04 Layer_Color=16711935*
%FSTAX25Y25*%
%MOIN*%
G70*
G04*
G04 #@! TF.SameCoordinates,ACC495E8-7B1D-45BE-8A89-05A210FF911E*
G04*
G04*
G04 #@! TF.FilePolarity,Negative*
G04*
G01*
G75*
%ADD77C,0.03556*%
%ADD78O,0.12800X0.11800*%
%ADD79R,0.12800X0.11800*%
%ADD80C,0.06312*%
%ADD81R,0.06312X0.06312*%
%ADD82C,0.08300*%
%ADD83O,0.10642X0.12611*%
G04:AMPARAMS|DCode=84|XSize=78.87mil|YSize=70.99mil|CornerRadius=19.75mil|HoleSize=0mil|Usage=FLASHONLY|Rotation=270.000|XOffset=0mil|YOffset=0mil|HoleType=Round|Shape=RoundedRectangle|*
%AMROUNDEDRECTD84*
21,1,0.07887,0.03150,0,0,270.0*
21,1,0.03937,0.07099,0,0,270.0*
1,1,0.03950,-0.01575,-0.01968*
1,1,0.03950,-0.01575,0.01968*
1,1,0.03950,0.01575,0.01968*
1,1,0.03950,0.01575,-0.01968*
%
%ADD84ROUNDEDRECTD84*%
%ADD85O,0.07099X0.07887*%
%ADD86O,0.08300X0.07000*%
G04:AMPARAMS|DCode=87|XSize=70mil|YSize=83mil|CornerRadius=19.5mil|HoleSize=0mil|Usage=FLASHONLY|Rotation=90.000|XOffset=0mil|YOffset=0mil|HoleType=Round|Shape=RoundedRectangle|*
%AMROUNDEDRECTD87*
21,1,0.07000,0.04400,0,0,90.0*
21,1,0.03100,0.08300,0,0,90.0*
1,1,0.03900,0.02200,0.01550*
1,1,0.03900,0.02200,-0.01550*
1,1,0.03900,-0.02200,-0.01550*
1,1,0.03900,-0.02200,0.01550*
%
%ADD87ROUNDEDRECTD87*%
%ADD88O,0.07887X0.07099*%
G04:AMPARAMS|DCode=89|XSize=78.87mil|YSize=70.99mil|CornerRadius=19.75mil|HoleSize=0mil|Usage=FLASHONLY|Rotation=180.000|XOffset=0mil|YOffset=0mil|HoleType=Round|Shape=RoundedRectangle|*
%AMROUNDEDRECTD89*
21,1,0.07887,0.03150,0,0,180.0*
21,1,0.03937,0.07099,0,0,180.0*
1,1,0.03950,-0.01968,0.01575*
1,1,0.03950,0.01968,0.01575*
1,1,0.03950,0.01968,-0.01575*
1,1,0.03950,-0.01968,-0.01575*
%
%ADD89ROUNDEDRECTD89*%
%ADD90O,0.06800X0.08800*%
%ADD91R,0.06800X0.08800*%
%ADD92C,0.04737*%
%ADD93C,0.14580*%
D77*
X0381606Y0268468D02*
D03*
X0372819Y0268957D02*
D03*
X0386Y0272862D02*
D03*
X0377213D02*
D03*
X0368425D02*
D03*
X0381606Y0277256D02*
D03*
X0372819D02*
D03*
X0386Y028165D02*
D03*
X0377213D02*
D03*
X0368425D02*
D03*
X0381606Y0286043D02*
D03*
X0372819D02*
D03*
X041752Y0266437D02*
D03*
X0417913Y0294587D02*
D03*
X0266929Y0302756D02*
D03*
X03365Y0246685D02*
D03*
X0384Y0200685D02*
D03*
X0389Y0207185D02*
D03*
X03995Y0171185D02*
D03*
X0394Y0137685D02*
D03*
D78*
X0125Y0160685D02*
D03*
D79*
Y0180685D02*
D03*
D80*
X04385Y0209063D02*
D03*
Y0216937D02*
D03*
Y0224811D02*
D03*
Y0232685D02*
D03*
Y0240559D02*
D03*
Y0248433D02*
D03*
X0438583Y0273228D02*
D03*
Y0281102D02*
D03*
D81*
X04385Y0256307D02*
D03*
X0438583Y0265354D02*
D03*
D82*
X0269876Y0245069D02*
D03*
X0288676Y0270469D02*
D03*
X0269476Y0270169D02*
D03*
X0288976Y0245669D02*
D03*
D83*
X01785Y0189685D02*
D03*
X02035Y0179685D02*
D03*
X01535D02*
D03*
X02035Y0131811D02*
D03*
X01535D02*
D03*
D84*
X0364843Y0143307D02*
D03*
D85*
X0354842D02*
D03*
D86*
X04385Y03085D02*
D03*
D87*
Y02985D02*
D03*
D88*
X04345Y0176D02*
D03*
X0115748Y0288976D02*
D03*
D89*
X04345Y0166D02*
D03*
X0115748Y0298976D02*
D03*
D90*
X0252665Y0193803D02*
D03*
X0262665D02*
D03*
X0272665D02*
D03*
X0282665D02*
D03*
X0292665D02*
D03*
X0302665D02*
D03*
X0252665Y0153803D02*
D03*
X0262665D02*
D03*
X0272665D02*
D03*
X0282665D02*
D03*
X0292665D02*
D03*
D91*
X0302665D02*
D03*
D92*
X02647Y0209336D02*
D03*
X02605Y0276406D02*
D03*
X0215Y0253185D02*
D03*
X0267Y0331283D02*
D03*
D93*
X044252Y032441D02*
D03*
Y0131496D02*
D03*
X0111811D02*
D03*
Y032441D02*
D03*
M02*
