M48
;Layer_Color=9474304
;FILE_FORMAT=2:4
INCH,LZ
;TYPE=PLATED
T1F00S00C0.0157
T2F00S00C0.0197
T3F00S00C0.0236
T4F00S00C0.0310
T5F00S00C0.0315
T6F00S00C0.0390
T7F00S00C0.0394
T8F00S00C0.0512
T9F00S00C0.0600
T10F00S00C0.1181
%
T01
X0394Y013769
X03995Y017119
X0384Y020069
X0389Y020719
X038161Y026847
X0386Y027286
X037721
X037282Y026896
X036843Y027286
X037282Y027726
X038161
X0386Y028165
X037721
X036843
X037282Y028604
X038161
X041791Y029459
X041752Y026644
X03365Y024669
X026693Y030276
T02
X0215Y025319
T03
X02647Y020934
X02605Y027641
X0267Y033128
T04
X025267Y01538
X026267
X027267
X028267
X029267
X030267
Y01938
X029267
X028267
X027267
X026267
X025267
X026988Y024507
X028898Y024567
X028868Y027047
X026948Y027017
T05
X04385Y020906
Y021694
Y022481
Y023268
Y024056
Y024843
Y025631
X043858Y026535
Y027323
Y02811
T06
X04385Y02985
Y03085
T07
X035484Y014331
X036484
X04345Y0166
Y0176
X011575Y028898
Y029898
T08
X01535Y013181
X02035
Y017968
X01785Y018968
X01535Y017968
T09
X0125Y016069
Y018068
T10
X011181Y01315
X044252
X011181Y032441
X044252
M30
