G04*
G04 #@! TF.GenerationSoftware,Altium Limited,Altium Designer,21.0.8 (223)*
G04*
G04 Layer_Color=16711935*
%FSTAX25Y25*%
%MOIN*%
G70*
G04*
G04 #@! TF.SameCoordinates,ACC495E8-7B1D-45BE-8A89-05A210FF911E*
G04*
G04*
G04 #@! TF.FilePolarity,Positive*
G04*
G01*
G75*
%ADD10C,0.00787*%
%ADD13C,0.00500*%
%ADD14C,0.01000*%
%ADD119C,0.00394*%
%ADD120R,0.11417X0.02436*%
D10*
X0338236Y0306713D02*
G03*
X0338236Y0306713I-0000394J0D01*
G01*
D13*
X0341779Y0311437D02*
X0412646D01*
X0341779D02*
Y033624D01*
Y0235846D02*
Y0311437D01*
Y0235846D02*
X0412646D01*
Y0311437D01*
Y033624D01*
X0341779D02*
X0412646D01*
D14*
X035359Y0321476D02*
Y0326142D01*
X0355923Y0328474D01*
X0358256Y0326142D01*
Y0321476D01*
Y0324975D01*
X035359D01*
X0360588Y0321476D02*
Y0328474D01*
X0365253Y0321476D01*
Y0328474D01*
X0367586D02*
X0372251D01*
X0369919D01*
Y0321476D01*
X0379249Y0328474D02*
X0374584D01*
Y0321476D01*
X0379249D01*
X0374584Y0324975D02*
X0376916D01*
X0381581Y0321476D02*
Y0328474D01*
X0386247Y0321476D01*
Y0328474D01*
X0388579Y0321476D02*
Y0328474D01*
X0393244Y0321476D01*
Y0328474D01*
X0395577Y0321476D02*
Y0326142D01*
X039791Y0328474D01*
X0400242Y0326142D01*
Y0321476D01*
Y0324975D01*
X0395577D01*
D119*
X0169709Y021013D02*
Y022824D01*
X0158291Y021013D02*
Y022824D01*
X0169709D01*
X0158291Y021013D02*
X0169709D01*
X0175594Y0211929D02*
Y0217441D01*
X0187406Y0211929D02*
Y0217441D01*
X0175594Y0211929D02*
X0187406D01*
X0175594Y0217441D02*
X0187406D01*
X0277634Y0218028D02*
Y0223342D01*
X0269366Y0218028D02*
Y0223342D01*
Y0218028D02*
X0277634D01*
X0269366Y0223342D02*
X0277634D01*
X0291634Y0218028D02*
Y0223342D01*
X0283366Y0218028D02*
Y0223342D01*
Y0218028D02*
X0291634D01*
X0283366Y0223342D02*
X0291634D01*
X0305634Y0218028D02*
Y0223342D01*
X0297366Y0218028D02*
Y0223342D01*
Y0218028D02*
X0305634D01*
X0297366Y0223342D02*
X0305634D01*
X0319634Y0218028D02*
Y0223342D01*
X0311366Y0218028D02*
Y0223342D01*
Y0218028D02*
X0319634D01*
X0311366Y0223342D02*
X0319634D01*
X0323843Y0205051D02*
X0329157D01*
X0323843Y0213319D02*
X0329157D01*
X0323843Y0205051D02*
Y0213319D01*
X0329157Y0205051D02*
Y0213319D01*
X0331343Y0205051D02*
X0336658D01*
X0331343Y0213319D02*
X0336658D01*
X0331343Y0205051D02*
Y0213319D01*
X0336658Y0205051D02*
Y0213319D01*
X0341366Y0184028D02*
Y0189342D01*
X0349634Y0184028D02*
Y0189342D01*
X0341366D02*
X0349634D01*
X0341366Y0184028D02*
X0349634D01*
X0341366Y0176528D02*
Y0181843D01*
X0349634Y0176528D02*
Y0181843D01*
X0341366D02*
X0349634D01*
X0341366Y0176528D02*
X0349634D01*
X0341366Y0169028D02*
Y0174343D01*
X0349634Y0169028D02*
Y0174343D01*
X0341366D02*
X0349634D01*
X0341366Y0169028D02*
X0349634D01*
X0341205Y0161528D02*
Y0166842D01*
X0349472Y0161528D02*
Y0166842D01*
X0341205D02*
X0349472D01*
X0341205Y0161528D02*
X0349472D01*
X0419842Y0314634D02*
X0425157D01*
X0419842Y0306366D02*
X0425157D01*
Y0314634D01*
X0419842Y0306366D02*
Y0314634D01*
X0409685Y0168402D02*
X0415197D01*
X0409685Y0156591D02*
X0415197D01*
X0409685D02*
Y0168402D01*
X0415197Y0156591D02*
Y0168402D01*
X0321158Y0269713D02*
Y027798D01*
X0315843Y0269713D02*
Y027798D01*
X0321158D01*
X0315843Y0269713D02*
X0321158D01*
D120*
X0164Y0226848D02*
D03*
M02*
