G04*
G04 #@! TF.GenerationSoftware,Altium Limited,Altium Designer,21.0.8 (223)*
G04*
G04 Layer_Color=255*
%FSTAX25Y25*%
%MOIN*%
G70*
G04*
G04 #@! TF.SameCoordinates,ACC495E8-7B1D-45BE-8A89-05A210FF911E*
G04*
G04*
G04 #@! TF.FilePolarity,Positive*
G04*
G01*
G75*
%ADD19R,0.05236X0.05236*%
%ADD20R,0.07874X0.03543*%
%ADD21R,0.03543X0.07874*%
%ADD22R,0.06102X0.09252*%
%ADD23R,0.02362X0.03937*%
%ADD24R,0.09843X0.09843*%
G04:AMPARAMS|DCode=25|XSize=287.4mil|YSize=157.48mil|CornerRadius=0mil|HoleSize=0mil|Usage=FLASHONLY|Rotation=180.000|XOffset=0mil|YOffset=0mil|HoleType=Round|Shape=Octagon|*
%AMOCTAGOND25*
4,1,8,-0.14370,0.03937,-0.14370,-0.03937,-0.10433,-0.07874,0.10433,-0.07874,0.14370,-0.03937,0.14370,0.03937,0.10433,0.07874,-0.10433,0.07874,-0.14370,0.03937,0.0*
%
%ADD25OCTAGOND25*%

%ADD26R,0.16142X0.07874*%
%ADD27R,0.04724X0.05906*%
%ADD28R,0.05906X0.05118*%
%ADD29R,0.04724X0.05118*%
%ADD30R,0.05118X0.05906*%
%ADD31R,0.05000X0.05000*%
%ADD32R,0.06299X0.03150*%
%ADD33R,0.07874X0.16142*%
%ADD34R,0.23622X0.39370*%
%ADD35R,0.10827X0.04213*%
%ADD36R,0.04331X0.08465*%
%ADD37R,0.04331X0.08465*%
%ADD38R,0.13780X0.08465*%
%ADD39R,0.04724X0.05512*%
%ADD40O,0.08858X0.06299*%
%ADD41R,0.04134X0.05315*%
%ADD42R,0.03543X0.03740*%
%ADD43R,0.03543X0.03740*%
%ADD44R,0.05315X0.04134*%
%ADD45R,0.03937X0.02362*%
%ADD46R,0.04724X0.03347*%
%ADD47R,0.05512X0.04724*%
%ADD100C,0.02756*%
%ADD101O,0.12000X0.11000*%
%ADD102R,0.12000X0.11000*%
%ADD103C,0.05512*%
%ADD104R,0.05512X0.05512*%
%ADD105C,0.07500*%
%ADD106O,0.09843X0.11811*%
G04:AMPARAMS|DCode=107|XSize=70.87mil|YSize=62.99mil|CornerRadius=15.75mil|HoleSize=0mil|Usage=FLASHONLY|Rotation=270.000|XOffset=0mil|YOffset=0mil|HoleType=Round|Shape=RoundedRectangle|*
%AMROUNDEDRECTD107*
21,1,0.07087,0.03150,0,0,270.0*
21,1,0.03937,0.06299,0,0,270.0*
1,1,0.03150,-0.01575,-0.01968*
1,1,0.03150,-0.01575,0.01968*
1,1,0.03150,0.01575,0.01968*
1,1,0.03150,0.01575,-0.01968*
%
%ADD107ROUNDEDRECTD107*%
%ADD108O,0.06299X0.07087*%
%ADD109O,0.07500X0.06200*%
G04:AMPARAMS|DCode=110|XSize=62mil|YSize=75mil|CornerRadius=15.5mil|HoleSize=0mil|Usage=FLASHONLY|Rotation=90.000|XOffset=0mil|YOffset=0mil|HoleType=Round|Shape=RoundedRectangle|*
%AMROUNDEDRECTD110*
21,1,0.06200,0.04400,0,0,90.0*
21,1,0.03100,0.07500,0,0,90.0*
1,1,0.03100,0.02200,0.01550*
1,1,0.03100,0.02200,-0.01550*
1,1,0.03100,-0.02200,-0.01550*
1,1,0.03100,-0.02200,0.01550*
%
%ADD110ROUNDEDRECTD110*%
%ADD111O,0.07087X0.06299*%
G04:AMPARAMS|DCode=112|XSize=70.87mil|YSize=62.99mil|CornerRadius=15.75mil|HoleSize=0mil|Usage=FLASHONLY|Rotation=180.000|XOffset=0mil|YOffset=0mil|HoleType=Round|Shape=RoundedRectangle|*
%AMROUNDEDRECTD112*
21,1,0.07087,0.03150,0,0,180.0*
21,1,0.03937,0.06299,0,0,180.0*
1,1,0.03150,-0.01968,0.01575*
1,1,0.03150,0.01968,0.01575*
1,1,0.03150,0.01968,-0.01575*
1,1,0.03150,-0.01968,-0.01575*
%
%ADD112ROUNDEDRECTD112*%
%ADD113O,0.06000X0.08000*%
%ADD114R,0.06000X0.08000*%
D19*
X0386Y0268468D02*
D03*
X0377213D02*
D03*
X0368425D02*
D03*
X0386Y0277256D02*
D03*
X0377213D02*
D03*
X0368425D02*
D03*
X0386Y0286043D02*
D03*
X0377213D02*
D03*
X0368425D02*
D03*
D20*
X0410677Y0306752D02*
D03*
Y0301752D02*
D03*
Y0296752D02*
D03*
Y0291752D02*
D03*
Y0286752D02*
D03*
Y0281752D02*
D03*
Y0276752D02*
D03*
Y0271752D02*
D03*
Y0266752D02*
D03*
Y0261752D02*
D03*
Y0256752D02*
D03*
Y0251752D02*
D03*
Y0246752D02*
D03*
Y0241752D02*
D03*
X0343748D02*
D03*
Y0246752D02*
D03*
Y0251752D02*
D03*
Y0256752D02*
D03*
Y0261752D02*
D03*
Y0266752D02*
D03*
Y0271752D02*
D03*
Y0276752D02*
D03*
Y0281752D02*
D03*
Y0286752D02*
D03*
Y0291752D02*
D03*
Y0296752D02*
D03*
Y0301752D02*
D03*
Y0306752D02*
D03*
D21*
X0399713Y0237815D02*
D03*
X0394713D02*
D03*
X0389713D02*
D03*
X0384713D02*
D03*
X0379713D02*
D03*
X0374713D02*
D03*
X0369713D02*
D03*
X0364713D02*
D03*
X0359713D02*
D03*
X0354713D02*
D03*
D22*
X0164Y0227453D02*
D03*
Y0210917D02*
D03*
D23*
X01815Y0210748D02*
D03*
X017776Y0218622D02*
D03*
X018524D02*
D03*
D24*
X02525Y0274468D02*
D03*
Y0259902D02*
D03*
D25*
X01295Y0242685D02*
D03*
Y0267685D02*
D03*
D26*
X0166874Y0253185D02*
D03*
X0201126D02*
D03*
D27*
X0153Y0268862D02*
D03*
Y0253508D02*
D03*
D28*
X031Y0318945D02*
D03*
Y0326425D02*
D03*
X0197Y0228426D02*
D03*
Y0220945D02*
D03*
X0399441Y0166236D02*
D03*
Y0158756D02*
D03*
X04245Y0198425D02*
D03*
Y0190945D02*
D03*
D29*
X0302161Y0308685D02*
D03*
X0309839D02*
D03*
D30*
X0288241Y031D02*
D03*
X028076D02*
D03*
X0334241Y0141185D02*
D03*
X032676D02*
D03*
X0408241Y0200685D02*
D03*
X040076D02*
D03*
X038774Y0151685D02*
D03*
X0380259D02*
D03*
D31*
X0280563Y0303D02*
D03*
X0288437D02*
D03*
X0400563Y0208185D02*
D03*
X0408437D02*
D03*
D32*
X0294882Y0288976D02*
D03*
X0267323D02*
D03*
X0389941Y0219685D02*
D03*
X04175D02*
D03*
D33*
X01525Y0319311D02*
D03*
Y0285059D02*
D03*
D34*
X0241193Y0304185D02*
D03*
D35*
X01809Y0290799D02*
D03*
Y0297492D02*
D03*
Y0304185D02*
D03*
Y0310878D02*
D03*
Y0317571D02*
D03*
D36*
X0222945Y024148D02*
D03*
X0241055D02*
D03*
D37*
X0232D02*
D03*
D38*
X0232Y026589D02*
D03*
D39*
X0247723Y0231698D02*
D03*
X0240243D02*
D03*
X0228277Y0276172D02*
D03*
X0235757D02*
D03*
D40*
X0240732Y0207185D02*
D03*
Y0217185D02*
D03*
X0207268D02*
D03*
Y0207185D02*
D03*
D41*
X0277339Y0220685D02*
D03*
X0269661D02*
D03*
X0291339D02*
D03*
X0283661D02*
D03*
X0305339D02*
D03*
X0297661D02*
D03*
X0319339D02*
D03*
X0311661D02*
D03*
X0341661Y0186685D02*
D03*
X0349339D02*
D03*
X0341661Y0179185D02*
D03*
X0349339D02*
D03*
X0341661Y0171685D02*
D03*
X0349339D02*
D03*
X03415Y0164185D02*
D03*
X0349177D02*
D03*
D42*
X02735Y0204559D02*
D03*
X027724Y0213811D02*
D03*
X0288Y0204559D02*
D03*
X029174Y0213811D02*
D03*
X03015Y0204559D02*
D03*
X030524Y0213811D02*
D03*
X03155Y0204185D02*
D03*
X031924Y0213437D02*
D03*
D43*
X026976Y0213811D02*
D03*
X028426D02*
D03*
X029776D02*
D03*
X031176Y0213437D02*
D03*
D44*
X03265Y0205346D02*
D03*
Y0213024D02*
D03*
X0334Y0205346D02*
D03*
Y0213024D02*
D03*
X04225Y0314339D02*
D03*
Y0306661D02*
D03*
X03185Y0277685D02*
D03*
Y0270008D02*
D03*
D45*
X0408504Y0162496D02*
D03*
X0416378Y0166236D02*
D03*
Y0158756D02*
D03*
D46*
X0432921Y0142945D02*
D03*
X04329Y0150385D02*
D03*
X0423079Y0146685D02*
D03*
X0389421Y0137685D02*
D03*
X03796Y0133985D02*
D03*
X0379579Y0141425D02*
D03*
D47*
X0325987Y0301743D02*
D03*
Y0309223D02*
D03*
X0318487Y0301743D02*
D03*
Y0309223D02*
D03*
D100*
X0381606Y0268468D02*
D03*
X0372819Y0268957D02*
D03*
X0386Y0272862D02*
D03*
X0377213D02*
D03*
X0368425D02*
D03*
X0381606Y0277256D02*
D03*
X0372819D02*
D03*
X0386Y028165D02*
D03*
X0377213D02*
D03*
X0368425D02*
D03*
X0381606Y0286043D02*
D03*
X0372819D02*
D03*
D101*
X0125Y0160685D02*
D03*
D102*
Y0180685D02*
D03*
D103*
X04385Y0209063D02*
D03*
Y0216937D02*
D03*
Y0224811D02*
D03*
Y0232685D02*
D03*
Y0240559D02*
D03*
Y0248433D02*
D03*
X0438583Y0273228D02*
D03*
Y0281102D02*
D03*
D104*
X04385Y0256307D02*
D03*
X0438583Y0265354D02*
D03*
D105*
X0269876Y0245069D02*
D03*
X0288676Y0270469D02*
D03*
X0269476Y0270169D02*
D03*
X0288976Y0245669D02*
D03*
D106*
X01785Y0189685D02*
D03*
X02035Y0179685D02*
D03*
X01535D02*
D03*
X02035Y0131811D02*
D03*
X01535D02*
D03*
D107*
X0364843Y0143307D02*
D03*
D108*
X0354842D02*
D03*
D109*
X04385Y03085D02*
D03*
D110*
Y02985D02*
D03*
D111*
X04345Y0176D02*
D03*
X0115748Y0288976D02*
D03*
D112*
X04345Y0166D02*
D03*
X0115748Y0298976D02*
D03*
D113*
X0252665Y0193803D02*
D03*
X0262665D02*
D03*
X0272665D02*
D03*
X0282665D02*
D03*
X0292665D02*
D03*
X0302665D02*
D03*
X0252665Y0153803D02*
D03*
X0262665D02*
D03*
X0272665D02*
D03*
X0282665D02*
D03*
X0292665D02*
D03*
D114*
X0302665D02*
D03*
M02*
